<?xml version="1.0" encoding="utf-8"?>
<!-- Generator: Adobe Illustrator 28.3.0, SVG Export Plug-In . SVG Version: 6.00 Build 0)  -->
<svg version="1.1" id="Vrstva_1" xmlns="http://www.w3.org/2000/svg" xmlns:xlink="http://www.w3.org/1999/xlink" x="0px" y="0px"
	 viewBox="0 0 1075.8 1045.4" style="enable-background:new 0 0 1075.8 1045.4;" xml:space="preserve">
<style type="text/css">
	.st0{stroke:#FFFFFF;stroke-width:0.8504;stroke-miterlimit:10;}
	.st1{fill:#FFFFFF;}
	.st2{fill:#1D1D1B;}
	.st3{fill:none;}
</style>
<path class="st0" d="M816,190.3c-4.8-1.2-4.8-4.8,0-6c27.8-6,43.5-19.2,43.5-34.8c0-33.6-50.7-38.4-94.2-38.4H512.8l-24.2,22.8
	h-44.7l-37.5,34.9h-44.7l-49.5,46.7h-32.6l49.5-45.5h-44.7l37.5-34.8h-44.7l24.2-24h-56.8l-166.8,157h56.8l97.9-93.5h32.6
	l-49.5,45.5h44.7L224.1,255h58l36.2-34.8h47.1l49.5-45.5h32.6l-99.1,93.5h59.2l136.6-129.4c12.1-12,35-14.4,50.7-6
	c7.2,3.6,10.9,8.4,10.9,14.4v87.5c0,21.6-49.5,24-71.3,24v9.6h230.8c49.5,0,107.5-4.8,107.5-39.6C871.6,208.3,853.5,195.1,816,190.3
	z M632.4,183.1V122h102.7c55.6,0,87,9.6,87,27.6c0,19.2-35,33.6-87,33.6L632.4,183.1L632.4,183.1z M834.1,227.5
	c0,19.2-27.8,28.8-85.8,28.8h-116v-61.1h116C811.2,195.1,834.1,211.9,834.1,227.5z"/>
<path class="st0" d="M170.3,284.4c-17.2,0-25.9-5-25.9-14.7c0-10.9,7.3-16.4,21.7-16.4c6.6,0,22.4,3.9,47,11.5
	c5.8-5,11.6-11.1,17.2-18.2c5.9-7.4,11.5-16.2,16.7-26.3c4.4-8.3,8.6-16.8,12.5-25.3c3.9-8.7,8-17.5,12.2-26
	c18.4-37.8,39.7-65.4,63.5-81.9c-6.5-1.8-13.9-3.2-22.2-4.3c-8.5-1.1-18-1.6-28.3-1.6c-11.3,0-22.2,1-32.2,3
	c-10,1.7-19.6,4.5-28.6,8.2c-21.1,8.5-37,21.4-47.2,38.3c-6.3,10.6-9.5,21.3-9.5,31.7c0,11,3.5,20.3,10.4,27.6
	c6.9,7.5,16,11.4,26.9,11.4c12.3,0,23.4-4.5,32.9-13.4c9.5-9.1,14.3-19.8,14.3-31.9c0-8.4-2.3-15.4-6.8-20.7
	c-4.7-5.6-11.3-8.4-19.7-8.4c-6.2,0-11.9,2-16.8,5.8c-4.9,4.2-7.4,9.6-7.4,16c0,4.9,2.6,7.3,8,7.3c0.2,0,0.4-0.3,0.5-0.6v-0.1
	l0.1-0.1c0.8-0.8,1.4-1.2,2-1.2h0.1l0.1,0.1c0.6,0.3,1,0.8,1,1.5c0,1.8-0.7,3.9-4.2,3.9c-7.8,0-11.8-3.7-11.8-11.1
	c0-7.2,3.3-13.5,9.8-18.9c6.2-5.1,13-7.7,20.1-7.7c9.6,0,17.5,3.2,23.5,9.4c6.2,6.2,9.4,14.2,9.4,23.8c0,14.6-5.8,27.1-17.3,37
	c-10.8,9.3-23.8,14-38.6,14c-13.9,0-25.5-4.2-34.3-12.3c-9.5-8.9-14.4-20-14.4-33c0-9.3,2.4-18.5,7-27.3
	c10.1-20,28.2-35.2,53.7-45.1c20.8-8.1,44.9-12.2,71.4-12.2c20.7,0,39.2,2.2,55,6.5c7-3.9,13.7-6.9,20-8.8c6.4-2.2,12.8-3.3,19-3.3
	c1.7,0,3.2,0.1,3.2,1.2c0,1-0.6,1.6-1.6,1.6c-0.8,0-2,0.1-3.5,0.3c-1.4,0-2.9,0.1-4.6,0.3c-9.2,0.8-18.3,4.4-27.2,10.5
	c22.5,7.6,33.9,20.4,33.9,38.1c0,2-0.2,4-0.7,6.1c-0.2,1.7-0.5,3.5-1,5.3c-2.7,11.3-13.4,20.7-32,27.7c-10.2,3.6-21.6,6.2-33.9,7.8
	c38.7,0.1,58.3,13.7,58.3,40.4c0,15.2-5.9,28.9-17.6,40.6c-10.1,10.1-23.3,17.8-39.1,22.9c-6.4,2.2-13.2,3.8-20.2,4.6
	c-7,1.1-14.4,1.7-21.8,1.7c-9,0-18.4-0.8-28.1-2.3c-9.4-1.5-19.1-3.9-28.9-7.2C199,279.5,183.5,284.4,170.3,284.4z M168.4,258.7
	c-13.1,0-19.5,3.7-19.5,11.3c0,7.1,8,10.6,23.8,10.6c12.7,0,25-4.3,36.7-12.8c-9-3.1-17-5.4-24-6.9
	C178.4,259.5,172.7,258.7,168.4,258.7z M221.2,267.2c14.6,4.3,28.2,6.5,40.5,6.5c22.4,0,42.6-5.4,60-16.1
	c21-12.4,31.7-28.9,31.7-49.3c0-24.3-18.1-36.7-53.8-36.7c-2.2,0-4.3,0.1-6.2,0.3c-1.9,0-3.6,0.1-5.3,0.3
	c-10.7,25-19.3,43-25.6,53.5C251.7,243,237.8,256.9,221.2,267.2z M341.5,89.1c-18.7,15.8-36.2,42.4-51.9,79.1
	c45.5-4.4,70.6-16.2,74.7-35.1c0.9-4.1,1.3-8.3,1.3-12.4C365.5,105.8,357.4,95.1,341.5,89.1z"/>
<path class="st0" d="M480.2,296.6c-19.4,0-35.7-5.3-48.5-15.6c-13.9-11.3-21-26.5-21-45.3c0-13.9,3.8-26.8,11.3-38.5
	c7.4-11.5,17.5-20,30.1-25.1c-1.5-5.4-2.2-11.6-2.2-18.4c0-18.5,5.5-35.7,16.2-51.1c11.2-16.3,25.6-27.3,42.8-32.8
	c17.5-6.1,35.3-9.3,52.9-9.3c10.8,0,22.3,1.4,34.4,4.3c12.1,2.9,25,7.5,38.3,13.9c11.4,5.2,22.8,10.8,34,16.5
	c11.1,5.4,22.4,11,33.7,16.7c11.6-7.2,22.6-10.8,32.7-10.8c18.5,0,27.9,6.2,27.9,18.4c0,8.2-4.6,12.4-13.7,12.4
	c-5.7,0-16.5-3.3-32.1-9.8c-11,13.9-20.3,33.6-27.6,58.5c-0.9,2.9-2,6.3-3.3,10.2c-1.1,3.9-2.5,8.7-4.3,14.2
	c-5.7,16-12,29.6-18.8,40.3c-5.1,8.4-10.5,15.2-15.9,20.5c23.2-14.4,51-40.8,82.9-78.5C795.1,110,848.2,70.8,887.9,70.8
	c21.1,0,31.9,6.3,31.9,18.7c0,3.4-1.2,7.6-3.7,12.4c-3.2,5.3-6.2,7.9-9.1,7.9c-1.9,0-2.2-1-2.2-1.6V108l1.1-1.5
	c0.9-0.9,2-2.1,3.3-3.7c2.8-3.2,4.1-6.7,4.1-10.5c0-7.6-5.2-11.3-15.9-11.3c-12.8,0-27.4,3.9-43.3,11.5
	c-35.1,17-76.8,52.1-123.7,104.3c-24.3,26.5-41.3,44.1-50.5,52.4c-23.5,20.9-44.5,31.5-62.3,31.5c-2.9,0-5.9-0.3-9-1h-0.2l-0.6-0.6
	v-0.2c0-0.5,0-1,11.2-6.1l4.6-2.6c1.7-1.1,3.4-2.2,4.9-3.3c3.8-3,10.3-13.5,19.3-31.1c3.1-6.1,6.1-12.2,8.9-18.1l8.6-17.8
	c3.7-7,7.4-14.1,10.9-21.1c3.7-7,7.5-14,11.2-20.8c4.6-8.3,9-15.8,13.2-22.1s8-11.6,11.4-15.9l-8-3.5
	c-24.8,15.1-50.8,41.4-77.3,78.1C577.8,262.3,528.5,296.6,480.2,296.6z M453.9,177.5c-11.2,4.2-20.4,11.5-27.2,22
	c-6.3,10.2-9.5,21.8-9.5,34.6c0,3.3,0.2,6.6,0.7,9.8c0.4,3,1.1,6.2,2,9.5c3.2,12.1,11.1,21.8,23.5,29c11.5,6.3,24,9.5,37.3,9.5
	c20.9,0,41.5-6.8,61.3-20.3c7-4.8,14.5-11,22.3-18.4c8.1-7.4,16.8-16.4,26-26.7c3.9-4.4,8.8-9.9,14.5-16.5l20.8-23.1l17.1-19.8
	c5.9-6.5,11.9-13.1,17.8-19.5c7-7.7,13.9-14.3,20.5-19.8c6.3-5.4,12.3-10.1,18-14c-15.8-7-29.3-12.9-40.2-17.4
	c-11.2-4.8-19.9-8.4-26-10.5c-12.9-4.4-25.4-7.7-37.2-9.9c-11.6-2.4-22.8-3.6-33.5-3.6c-17.6,0-34.1,3.1-48.9,9.2
	c-15.4,6.1-28.4,15.9-38.7,29.1c-10.6,13.9-16,29.2-16,45.5c0,2.4,0.1,4.8,0.3,7.2l1.2,5.9c5.1-1.2,10.3-1.9,15.4-1.9
	c2.4,0,4.7,0.1,6.7,0.3c2.2,0.2,4.4,0.6,6.6,1c10.4,2,18.9,7.4,25.1,16c6.3,8.7,9.2,18.1,8.7,28.1c17.4-0.3,33.3-5.6,47.5-15.7
	c15.6-11.5,23.5-25.7,23.5-42.4c0-12.5-4.5-23.4-13.3-32.2c-8.2-8.9-18.9-13.3-31.9-13.3c-9.7,0-18.8,3.2-27,9.4
	c-8.4,7.1-12.6,15.5-12.6,24.9c0,8.5,3.8,14.8,11.2,18.6l0.3,0.2v0.2c1.1,0.3,2.3,1.3,2.3,3.8v0.2l-0.7,0.7h-0.6
	c-0.5,0-1.4-0.2-3.9-1.7c-8.7-5.8-13.1-13.6-13.1-23.2c0-11.1,4.8-20.6,14.4-28.1c8.4-7.1,18.6-10.7,30.3-10.7
	c14.1,0,26.3,4.8,36,14.3c10.2,9.7,15.3,21.5,15.3,35c0,19.4-8.6,35.6-25.6,47.9c-14.9,11.2-32.4,16.9-51.9,16.9c-0.2,0-0.4,0-0.6,0
	c-1.7,10.9-7.9,20.5-18.6,28.5c-4.9,3.5-10.1,6.3-15.6,8.3c-5.5,1.8-11.5,2.7-17.7,2.7c-5.6,0-8.1-0.8-8.1-2.5
	c0-1.3,2.2-1.9,7.5-1.9c1.3,0,2.8-0.1,4.5-0.3c2-0.2,4-0.5,6.2-1c17.5-3.8,28.7-15.3,33.3-34.2C482.4,214.7,462.3,201.3,453.9,177.5
	z M461.5,175.2c3.7,11,10.6,19.9,20.4,26.5c9.2,6.2,20.1,9.9,32.5,11.1c0.1-0.8,0.2-2.1,0.2-3.7c0-7.3-2.1-14.5-6.2-21.5
	c-4.5-6.6-10.5-10.9-17.8-12.6c-2.4-0.4-4.9-0.8-7.5-1c-2.6-0.4-5.2-0.7-7.5-0.7C470.7,173.4,465.9,174,461.5,175.2z M719.9,118.9
	c7,2.5,12.8,4.5,17.3,6c4.5,1.3,7.7,1.9,9.4,1.9c5.2,0,7.7-2.5,7.7-7.7c0-4.4-2.1-7.8-6.3-10.4c-3.8-1.9-8.2-2.9-12.9-2.9
	c-7.9,0-17,2.8-27.1,8.3c1.2,0.5,2.2,1,3.3,1.5l3.5,1.2c4.9-5,8.7-7.5,11.7-7.5c1.1,0,1.2,0.7,1.2,0.9v0.2l-0.1,0.2
	c-1.1,1.3-2.3,2.8-3.6,4.3L719.9,118.9z M751.1,293.3c-9.8,0-14.7-8.4-14.7-25c0-19.5,5-39.8,14.9-60.2c4-7.9,10.2-17.5,18.5-28.4
	c3.3-4.2,6.9-8.4,10.6-12.6c3.7-4.4,7.8-9,12.2-13.8c2.4-2.8,5.7-6.4,9.9-10.6c4.1-4.3,9.1-9.5,14.8-15.5
	c22.6-22.6,24.4-22.6,25.1-22.6c0.3,0,0.6,0.2,0.7,0.4c0.2,0.4,0.1,0.9-1.2,2.5c-0.2,0.3-0.6,1-2,2.4c-0.8,1.1-2.2,2.5-4,4.3
	c-9.4,10-18.7,22-27.6,35.5c-5.9,8.7-11.8,18.5-17.4,29c-5.7,10.3-11.4,21.6-17.1,33.6c-6.8,15.1-12.1,28.3-15.8,39.5
	c-3.5,10.9-5.2,20-5.2,27.2c0,5.8,1.6,8.7,5,8.7c1.9,0,5.9-1.9,11.9-5.5c5.6-3.7,9.3-6.6,11.1-8.8c0.8-1,1.8-1.5,3.1-1.5h0.2
	l0.2,0.2c0.6,0.6,0.8,1,0.8,1.4s-0.3,0.8-0.8,1.4C772.2,287,761.1,293.3,751.1,293.3z"/>
<g>
	
		<image style="overflow:visible;opacity:0.35;" width="1085" height="1104" xlink:href="8114360049E41917.png"  transform="matrix(0.144 0 0 0.144 136.6242 789.2479)">
	</image>
	<g>
		<path class="st1" d="M212,813.6c-25.4,9.9-43.4,24.9-53.4,44.8c-4.6,8.8-6.9,17.9-6.9,27c0,12.8,4.8,23.7,14.2,32.6
			c8.8,8.1,20.2,12.1,33.9,12.1c14.7,0,27.5-4.7,38.2-13.9c11.3-9.8,17.1-22.1,17.1-36.6c0-9.4-3.1-17.3-9.2-23.4
			c-5.9-6.1-13.7-9.2-23.1-9.2c-7,0-13.6,2.5-19.7,7.6c-6.4,5.3-9.6,11.5-9.6,18.5c0,7.1,3.7,10.5,11.2,10.5c2.4,0,3.6-1.1,3.6-3.3
			c0-0.4-0.2-0.8-0.7-1l-0.1,0c-0.4,0.1-0.8,0.4-1.4,1l0,0c-0.2,0.5-0.5,1-1,1c-5.7,0-8.6-2.6-8.6-7.9c0-6.6,2.6-12.1,7.6-16.4
			c5.1-3.9,10.9-5.9,17.2-5.9c8.6,0,15.3,2.9,20.1,8.6c4.6,5.4,6.9,12.5,6.9,21.1c0,12.2-4.9,23.1-14.5,32.3
			c-9.6,9-20.8,13.6-33.3,13.6c-11.1,0-20.2-3.9-27.3-11.6c-7-7.4-10.5-16.8-10.5-28c0-10.5,3.2-21.3,9.6-32
			c10.3-17,26.2-30,47.5-38.5c9.2-3.8,18.9-6.6,28.7-8.2c9.1-1.8,18.9-2.8,29.2-3v-3.8C253.4,802,231.3,806.1,212,813.6z"/>
	</g>
</g>
<g>
	
		<image style="overflow:visible;opacity:0.35;" width="1466" height="1778" xlink:href="8114360049E41912.png"  transform="matrix(0.144 0 0 0.144 397.6962 779.312)">
	</image>
	<g>
		<path class="st1" d="M479.4,1013.9c-12.8,0-25-3.1-36.1-9.2c-12.1-7-19.8-16.5-22.9-28.2c-0.9-3.4-1.6-6.5-1.9-9.2
			c-0.4-2.9-0.7-6.1-0.7-9.5c0-12.4,3.1-23.6,9.2-33.5c6.5-10.1,15.4-17.2,26.4-21.4l0.5-0.2l0.2,0.5c8,22.7,27.1,35.4,56.9,37.8
			l0.7,0.1l-0.2,0.6c-4.5,18.4-15.4,29.6-32.4,33.3c-2,0.4-3.9,0.8-6,1c-1.6,0.2-3.1,0.3-4.4,0.3c-5.8,0-6.6,0.8-6.6,1.3
			c0,0.8,1.3,1.8,7.2,1.8s11.6-0.9,16.8-2.6c5.1-1.9,10.1-4.5,14.8-7.9c10.1-7.5,16-16.6,17.6-27l0.1-0.5h1.1
			c18.6,0,35.3-5.4,49.5-16.1c16.2-11.7,24.4-27,24.4-45.6c0-12.9-4.9-24.1-14.5-33.2c-9.2-9-20.7-13.6-34.2-13.6
			c-11.1,0-20.8,3.4-28.8,10.1c-9.1,7.1-13.6,16-13.6,26.6c0,9,4.1,16.4,12.3,21.8c1.7,1,2.8,1.5,3.4,1.5h0.3l0.3-0.3
			c0-1.7-0.6-2.8-1.8-3.1l-0.4-0.1l0-0.3c-7.3-3.7-11-9.9-11-18.3c0-9.3,4.1-17.5,12.3-24.4c8.1-6.1,16.9-9.2,26.3-9.2
			c12.7,0,23.1,4.4,31.1,13c8.6,8.6,12.9,19.1,12.9,31.3c0,16.2-7.7,30-22.8,41.2c-13.8,9.8-29.2,14.9-46,15.2l-0.6,0l0-0.6
			c0.5-9.5-2.3-18.4-8.3-26.6c-5.9-8.1-13.9-13.2-23.8-15.1c-2.1-0.4-4.2-0.8-6.3-1c-1.9-0.2-4.1-0.3-6.4-0.3
			c-4.6,0-9.6,0.6-14.7,1.8l-0.6,0.1l-1.3-6.2c-0.2-2.4-0.3-4.7-0.3-7c0-15.8,5.2-30.6,15.5-44.1c10-12.8,22.6-22.3,37.4-28.1
			c14.3-5.9,30.2-8.9,47.2-8.9c5.7,0,11.6,0.4,17.6,1.1v-10.1c-6.1-0.8-12.1-1.3-17.8-1.3c-16.7,0-33.7,3-50.6,8.9
			c-16.4,5.3-30.2,15.8-40.8,31.3c-10.3,14.8-15.5,31.2-15.5,48.8c0,6.6,0.7,12.5,2.1,17.5l0.1,0.5l-0.5,0.2
			c-11.9,4.8-21.6,12.9-28.7,23.9c-7.1,11.1-10.8,23.5-10.8,36.7c0,17.8,6.7,32.3,20,43.1c12.3,9.9,27.8,14.9,46.2,14.9
			c0.2,0,0.4,0,0.6,0v-3.4C479.5,1013.9,479.5,1013.9,479.4,1013.9z M460.8,900.7c4.1-1.1,8.7-1.7,13.7-1.8c2,0,4.3,0.2,7.3,0.7
			c2.5,0.2,4.8,0.6,7.2,1c7.2,1.7,13,5.8,17.5,12.3c4,6.9,6.1,13.9,6.1,21c0,1.8-0.1,3.2-0.2,3.6l-0.1,0.5l-0.5-0.1
			c-12-1.2-22.6-4.8-31.5-10.8c-9.6-6.4-16.2-15.1-19.8-25.8l-0.2-0.6L460.8,900.7z"/>
	</g>
</g>
<g>
	
		<image style="overflow:visible;opacity:0.35;" width="923" height="1469" xlink:href="8114360049E41911.png"  transform="matrix(0.144 0 0 0.144 710.0322 821.2159)">
	</image>
	<g>
		<path class="st1" d="M739.3,1014.7c-9.4,0-14.1-8.1-14.1-24c0-18.7,4.8-38.2,14.3-57.8c3.8-7.6,9.8-16.8,17.8-27.3
			c3.2-4,6.6-8.1,10.2-12.1c3.6-4.2,7.5-8.6,11.7-13.3c2.3-2.7,5.5-6.1,9.5-10.2c3.9-4.1,8.7-9.1,14.2-14.9
			c21.7-21.7,23.4-21.7,24.1-21.7c0.3,0,0.6,0.2,0.7,0.4c0.2,0.4,0.1,0.9-1.2,2.4c-0.2,0.3-0.6,1-1.9,2.3c-0.8,1.1-2.1,2.4-3.8,4.1
			c-9,9.6-18,21.1-26.5,34.1c-5.7,8.4-11.3,17.8-16.7,27.9c-5.5,9.9-11,20.8-16.4,32.3c-6.5,14.5-11.6,27.2-15.2,38
			c-3.4,10.5-5,19.2-5,26.1c0,5.6,1.5,8.4,4.8,8.4c1.8,0,5.7-1.8,11.4-5.3c5.4-3.6,8.9-6.3,10.7-8.5c0.8-1,1.7-1.4,3-1.4h0.2
			l0.2,0.2c0.6,0.6,0.8,1,0.8,1.3c0,0.4-0.3,0.8-0.8,1.3C759.5,1008.7,748.9,1014.7,739.3,1014.7z"/>
	</g>
</g>
<g>
	
		<image style="overflow:visible;opacity:0.35;" width="5730" height="1302" xlink:href="8114360049E4191E.png"  transform="matrix(0.144 0 0 0.144 62.7522 815.5999)">
	</image>
	<g>
		<path class="st1" d="M816,907.1c-4.8-1.2-4.8-4.8,0-6c27.8-6,43.5-19.2,43.5-34.8c0-33.6-50.7-38.4-94.2-38.4H512.8l-24.2,22.8
			h-44.7l-37.5,34.9h-44.7l-49.5,46.7h-32.6l49.5-45.5h-44.7l37.5-34.8h-44.7l24.2-24h-56.8L77.8,985h56.8l97.9-93.5h32.6L215.6,937
			h44.7l-36.2,34.8h58l36.2-34.8h47.1l49.5-45.5h32.6L348.4,985h59.2l136.6-129.4c12.1-12,35-14.4,50.7-6
			c7.2,3.6,10.9,8.4,10.9,14.4v87.5c0,21.6-49.5,24-71.3,24v9.6h230.8c49.5,0,107.5-4.8,107.5-39.6
			C871.6,925.1,853.5,911.9,816,907.1z M632.4,899.9v-61.1h102.7c55.6,0,87,9.6,87,27.6c0,19.2-35,33.6-87,33.6L632.4,899.9
			L632.4,899.9z M834.1,944.3c0,19.2-27.8,28.8-85.8,28.8h-116V912h116C811.2,911.9,834.1,928.7,834.1,944.3z"/>
	</g>
</g>
<g>
	
		<image style="overflow:visible;opacity:0.35;" width="1868" height="1686" xlink:href="8114360049E41910.png"  transform="matrix(0.144 0 0 0.144 125.9682 783.632)">
	</image>
	<g>
		<path class="st1" d="M309.2,806.9c8.6,1.1,15.9,2.6,22.3,4.3l1.2,0.3l-1,0.7c-23.6,16.4-44.9,43.8-63.3,81.7
			c-3.9,7.9-8,16.6-12.2,26c-3.9,8.5-8.1,17-12.5,25.3c-5.2,10.1-10.8,18.9-16.8,26.4c-5.5,7-11.3,13.2-17.3,18.3l-0.2,0.2L209,990
			c-24.6-7.6-40.4-11.5-46.8-11.5c-14,0-21.1,5.3-21.1,15.8c0,9.4,8.5,14.1,25.3,14.1c12.9,0,28.3-4.8,45.7-14.1l0.2-0.1l0.2,0.1
			c9.7,3.3,19.4,5.7,28.8,7.2c9.8,1.5,19.3,2.3,28,2.3c7.3,0,14.6-0.6,21.7-1.7c6.8-0.8,13.5-2.3,20.1-4.6
			c15.8-5.1,28.9-12.8,38.9-22.8c11.6-11.6,17.4-25.1,17.4-40.2c0-26.3-19.4-39.7-57.7-39.8l-0.1-1.1c12.4-1.6,23.7-4.2,33.8-7.8
			c18.3-6.9,29-16.1,31.6-27.3c0.4-1.6,0.8-3.3,1-5.2c0.5-2,0.7-4,0.7-6c0-17.4-11.3-30.1-33.5-37.6l-1.1-0.4l0.9-0.6
			c9.1-6.2,18.3-9.8,27.5-10.6c1.7-0.2,3.3-0.3,4.6-0.3c1.4-0.2,2.7-0.3,3.5-0.3c0.7,0,1-0.3,1-1c0-0.6-1.3-0.6-2.6-0.6
			c-6.2,0-12.5,1.1-18.8,3.3c-6.1,1.8-12.8,4.8-19.9,8.8l-0.2,0.1l-0.2-0.1c-15.8-4.3-34.3-6.5-54.9-6.5c-1.8,0-3.6,0-5.5,0.1v3.8
			c1,0,2,0,3.1,0C291.4,805.3,300.9,805.8,309.2,806.9z M205.8,992.9c-11.8,8.6-24.2,12.9-37,12.9c-16.2,0-24.4-3.8-24.4-11.2
			c0-8,6.6-11.9,20.1-11.9c4.1,0,9.6,0.7,17.1,2.2c7,1.5,15.1,3.8,24.1,6.9l1,0.4L205.8,992.9z M350,932.9c0,20.5-10.8,37.3-32,49.8
			c-17.5,10.7-37.7,16.2-60.3,16.2c-12.3,0-26-2.2-40.7-6.5l-1.2-0.4l1.1-0.7c16.6-10.3,30.4-24.2,41.1-41.3
			c6.2-10.4,14.8-28.4,25.6-53.4l0.1-0.3l0.3,0c1.8-0.2,3.5-0.3,5.4-0.3c1.8-0.2,4-0.3,6.2-0.3C331.8,895.7,350,908.2,350,932.9z
			 M337.5,813.1l0.3,0.1c16.1,6.1,24.4,16.9,24.5,32.1c0,4.3-0.4,8.6-1.3,12.5c-4.2,19.2-29.5,31.1-75.2,35.5l-1,0.1l0.4-0.9
			c15.7-36.7,33.2-63.4,52.1-79.3L337.5,813.1z"/>
	</g>
</g>
<g>
	
		<image style="overflow:visible;opacity:0.35;" width="3135" height="1769" xlink:href="8114360049E41916.png"  transform="matrix(0.144 0 0 0.144 464.5122 780.608)">
	</image>
	<g>
		<path class="st1" d="M619.3,919.5c25.5-35.4,50.6-60.7,74.4-75.2l0.3-0.2l8.6,3.8l-0.5,0.6c-3.2,4.1-6.9,9.2-10.9,15.2
			c-3.7,5.5-7.7,12.3-12.7,21.2c-3.5,6.4-7.2,13.2-10.8,20c-2.9,5.8-6.2,12.3-10.5,20.3l-8.3,17.1c-2.7,5.6-5.6,11.5-8.6,17.4
			c-8.7,17-15,27.2-18.7,30.1c-1.5,1.1-3.1,2.1-4.7,3.2l-4.5,2.5c-6.6,3-10.1,4.8-10.5,5.3l0.3,0.3c2.8,0.6,5.6,0.9,8.5,0.9
			c17,0,37-10.1,59.5-30.1c8.9-8,25.7-25.4,48.5-50.3c45.1-50.2,85.1-83.9,119-100.3c15.4-7.4,29.5-11.1,41.9-11.1
			c10.7,0,15.8,3.7,15.8,11.4c0,3.8-1.4,7.4-4.1,10.5c-1.1,1.4-2.2,2.6-3.2,3.6l-0.9,1.2c0,0.6,0.5,1,1.5,1c2.5,0,5.3-2.5,8.3-7.3
			c2.3-4.4,3.5-8.4,3.5-11.6c0-11.5-10.1-17.4-30.1-17.4c-37.9,0-88.8,37.6-151.3,111.7c-30.8,36.4-57.6,61.8-79.8,75.5l-4.3,2.7
			l3.7-3.6c5.4-5.3,10.5-11.9,15.2-19.6c6.4-10.1,12.5-23.1,18-38.6c1.8-5.6,3.2-10.4,4.1-13.6c1.2-3.7,2.3-7,3.2-9.8
			c7-24,16-43,26.6-56.4l0.3-0.3l0.4,0.2c14.9,6.2,25.2,9.4,30.6,9.4c8.4,0,12.6-3.8,12.6-11.3c0-11.4-8.8-17.1-26.2-17.1
			c-9.6,0-20.1,3.5-31.1,10.3l-0.3,0.2l-0.3-0.1c-10.8-5.5-21.7-10.9-32.4-16c-12.1-6.2-22.8-11.4-32.7-15.8
			c-12.4-6-24.8-10.5-36.7-13.3c-5.1-1.2-10.1-2.2-15.1-2.8V803c4.8,0.6,9.8,1.4,14.7,2.4c11.5,2.1,23.6,5.4,35.8,9.5
			c5.2,1.8,12.5,4.7,25,10.1c11.5,4.7,26,11.1,38.6,16.7l0.9,0.4l-0.8,0.6c-5.3,3.6-11,8-17.2,13.4c-6.6,5.5-13.2,11.9-19.6,19
			c-5.7,6.2-11.6,12.6-17.1,18.7l-16.4,19l-20,22.2c-4.8,5.6-9.2,10.5-12.6,14.4l-1.3,1.5c-9.1,10.2-17.6,18.9-25,25.7
			c-7.6,7.2-14.8,13.1-21.5,17.7c-19,13-38.9,19.6-59.1,19.6v3.4C525.6,1017,572.6,984.1,619.3,919.5z M697.6,842
			c9.8-5.3,18.7-8,26.3-8c4.6,0,8.9,1,12.6,2.8c4.3,2.7,6.4,6.1,6.4,10.5c0,5.3-2.7,8-8,8c-1.8,0-5.1-0.7-9.2-1.8
			c-4.7-1.6-10.5-3.6-16.7-5.8l-0.9-0.3l4.6-4.5c0.7-0.8,1.4-1.7,2.1-2.5c0.4-0.5,0.9-1,1.3-1.5l0-0.1c0-0.3-0.4-0.3-0.6-0.3
			c-2.7,0-6.2,2.3-10.8,7l-0.3,0.3l-3.7-1.3c-0.4-0.2-0.8-0.3-1.1-0.5c-0.7-0.3-1.3-0.6-2.1-0.9l-1.1-0.5L697.6,842z"/>
	</g>
</g>
<path class="st1" d="M212,1305.7c-25.4,9.9-43.4,24.9-53.4,44.8c-4.6,8.8-6.9,17.9-6.9,27c0,12.8,4.8,23.7,14.2,32.6
	c8.8,8.1,20.2,12.1,33.9,12.1c14.7,0,27.5-4.7,38.2-13.9c11.3-9.8,17.1-22.1,17.1-36.6c0-9.4-3.1-17.3-9.2-23.4
	c-5.9-6.1-13.7-9.2-23.1-9.2c-7,0-13.6,2.5-19.7,7.6c-6.4,5.3-9.6,11.5-9.6,18.5c0,7.1,3.7,10.5,11.2,10.5c2.4,0,3.6-1.1,3.6-3.3
	c0-0.4-0.2-0.8-0.7-1l-0.1,0c-0.4,0.1-0.8,0.4-1.4,1l0,0c-0.2,0.5-0.5,1-1,1c-5.7,0-8.6-2.6-8.6-7.9c0-6.6,2.6-12.1,7.6-16.4
	c5.1-3.9,10.9-5.9,17.2-5.9c8.6,0,15.3,2.9,20.1,8.6c4.6,5.4,6.9,12.5,6.9,21.1c0,12.2-4.9,23.1-14.5,32.3
	c-9.6,9-20.8,13.6-33.3,13.6c-11.1,0-20.2-3.9-27.3-11.6c-7-7.4-10.5-16.8-10.5-28c0-10.5,3.2-21.3,9.6-32
	c10.3-17,26.2-30,47.5-38.5c9.2-3.8,18.9-6.6,28.7-8.2c9.1-1.8,18.9-2.8,29.2-3v-3.8C253.4,1294.2,231.3,1298.2,212,1305.7z"/>
<path class="st2" d="M248.6,1301c-10,1.7-19.6,4.5-28.6,8.2c-21.1,8.5-37,21.4-47.2,38.3c-6.3,10.6-9.5,21.3-9.5,31.7
	c0,11,3.5,20.3,10.4,27.6c6.9,7.5,16,11.4,26.9,11.4c12.3,0,23.4-4.5,32.9-13.4c9.5-9.1,14.3-19.8,14.3-31.9
	c0-8.4-2.3-15.4-6.8-20.7c-4.7-5.6-11.3-8.4-19.7-8.4c-6.2,0-11.9,2-16.8,5.8c-4.9,4.2-7.4,9.6-7.4,16c0,4.9,2.6,7.3,8,7.3
	c0.2,0,0.4-0.3,0.5-0.6v-0.1l0.1-0.1c0.8-0.8,1.4-1.2,2-1.2h0.1l0.1,0.1c0.6,0.3,1,0.8,1,1.5c0,1.8-0.7,3.9-4.2,3.9
	c-7.8,0-11.8-3.7-11.8-11.1c0-7.2,3.3-13.5,9.8-18.9c6.2-5.1,13-7.7,20.1-7.7c9.6,0,17.5,3.2,23.5,9.4c6.2,6.2,9.4,14.2,9.4,23.8
	c0,14.6-5.8,27.1-17.3,37c-10.8,9.3-23.8,14-38.6,14c-13.9,0-25.5-4.2-34.3-12.3c-9.5-8.9-14.4-20-14.4-33c0-9.3,2.4-18.5,7-27.3
	c10.1-20,28.2-35.2,53.7-45.1c19.4-7.5,41.6-11.6,65.9-12.1v-0.6c-24.5,0.5-46.7,4.6-66.2,12.2c-25.7,10-43.8,25.2-54,45.4
	c-4.7,9-7.1,18.2-7.1,27.6c0,13.1,4.9,24.4,14.6,33.4c9,8.3,20.6,12.5,34.7,12.5c15,0,28.1-4.8,39-14.1c11.6-10,17.5-22.6,17.5-37.4
	c0-9.7-3.2-17.9-9.6-24.2c-6.1-6.4-14.2-9.6-23.9-9.6c-7.3,0-14.1,2.6-20.5,7.8c-6.6,5.5-10,12-10,19.3c0,7.6,4.3,11.7,12.4,11.7
	c3.1,0,4.8-1.6,4.8-4.5c0-0.8-0.4-1.5-1.2-2l-0.2-0.2h-0.3c-0.9,0-1.7,0.7-2.4,1.4l-0.3,0.4v0.1c0,0.1,0,0.1-0.1,0.1
	c-5,0-7.3-2.2-7.3-6.7c0-6.2,2.4-11.5,7.2-15.6c4.9-3.8,10.4-5.7,16.5-5.7c8.2,0,14.7,2.8,19.3,8.2c4.4,5.2,6.7,12,6.7,20.3
	c0,11.9-4.8,22.5-14.1,31.5c-9.4,8.8-20.3,13.2-32.5,13.2c-10.7,0-19.6-3.8-26.5-11.2c-6.8-7.2-10.2-16.3-10.2-27.2
	c0-10.3,3.2-20.9,9.4-31.4c10.1-16.8,25.9-29.6,46.9-38.1c9.1-3.8,18.7-6.5,28.5-8.2c9-1.8,18.8-2.8,29-3v-0.6
	C267.5,1298.2,257.7,1299.2,248.6,1301z"/>
<path class="st2" d="M158.1,1350.3c-4.6,8.8-7,18-7,27.3c0,13,4.9,24.1,14.4,33c8.8,8.1,20.4,12.3,34.3,12.3
	c14.8,0,27.8-4.7,38.6-14c11.5-9.9,17.3-22.4,17.3-37c0-9.6-3.2-17.6-9.4-23.8c-6-6.2-13.9-9.4-23.5-9.4c-7.1,0-13.9,2.6-20.1,7.7
	c-6.5,5.4-9.8,11.7-9.8,18.9c0,7.4,4,11.1,11.8,11.1c3.5,0,4.2-2.1,4.2-3.9c0-0.7-0.4-1.2-1-1.5l-0.1-0.1h-0.1c-0.6,0-1.2,0.4-2,1.2
	l-0.1,0.1v0.1c-0.1,0.3-0.3,0.6-0.5,0.6c-5.4,0-8-2.4-8-7.3c0-6.4,2.5-11.8,7.4-16c4.9-3.8,10.6-5.8,16.8-5.8c8.4,0,15,2.8,19.7,8.4
	c4.5,5.3,6.8,12.3,6.8,20.7c0,12.1-4.8,22.8-14.3,31.9c-9.5,8.9-20.6,13.4-32.9,13.4c-10.9,0-20-3.9-26.9-11.4
	c-6.9-7.3-10.4-16.6-10.4-27.6c0-10.4,3.2-21.1,9.5-31.7c10.2-16.9,26.1-29.8,47.2-38.3c9-3.7,18.6-6.5,28.6-8.2
	c9.1-1.8,18.9-2.8,29.1-3v-0.6c-10.3,0.2-20.2,1.2-29.2,3c-9.8,1.7-19.5,4.4-28.7,8.2c-21.2,8.6-37.2,21.5-47.5,38.5
	c-6.4,10.7-9.6,21.5-9.6,32c0,11.2,3.6,20.6,10.5,28c7.1,7.7,16.3,11.6,27.3,11.6c12.5,0,23.7-4.6,33.3-13.6
	c9.6-9.2,14.5-20.1,14.5-32.3c0-8.6-2.3-15.6-6.9-21.1c-4.8-5.7-11.6-8.6-20.1-8.6c-6.3,0-12.1,2-17.2,5.9c-5,4.3-7.6,9.8-7.6,16.4
	c0,5.2,2.9,7.9,8.6,7.9c0.5,0,0.9-0.5,1-1l0,0c0.6-0.6,1.1-0.9,1.4-1l0.1,0c0.5,0.2,0.7,0.6,0.7,1c0,2.2-1.2,3.3-3.6,3.3
	c-7.6,0-11.2-3.4-11.2-10.5c0-7,3.2-13.2,9.6-18.5c6.1-5,12.7-7.6,19.7-7.6c9.4,0,17.2,3.1,23.1,9.2c6.1,6.1,9.2,14,9.2,23.4
	c0,14.5-5.8,26.8-17.1,36.6c-10.7,9.2-23.5,13.9-38.2,13.9c-13.7,0-25.2-4.1-33.9-12.1c-9.4-8.8-14.2-19.8-14.2-32.6
	c0-9.1,2.3-18.2,6.9-27c10-19.9,28-35,53.4-44.8c19.3-7.5,41.4-11.6,65.7-12.1v-0.6c-24.4,0.5-46.6,4.6-65.9,12.1
	C186.3,1315.1,168.2,1330.3,158.1,1350.3z"/>
<path class="st3" d="M480.9,1418.4c8.6,5.8,18.8,9.3,30.4,10.5c0.1-0.6,0.1-1.6,0.1-2.9c0-6.9-2-13.7-5.9-20.4
	c-4.3-6.3-9.9-10.2-16.7-11.8c-2.3-0.4-4.7-0.8-7.1-0.9c-3-0.5-5.3-0.7-7.2-0.7c-4.6,0.1-8.9,0.6-12.8,1.6
	C465.3,1403.9,471.7,1412.2,480.9,1418.4z"/>
<path class="st1" d="M479.4,1506.1c-12.8,0-25-3.1-36.1-9.2c-12.1-7-19.8-16.5-22.9-28.2c-0.9-3.4-1.6-6.5-1.9-9.2
	c-0.4-2.9-0.7-6.1-0.7-9.5c0-12.4,3.1-23.6,9.2-33.5c6.5-10.1,15.4-17.2,26.4-21.4l0.5-0.2l0.2,0.5c8,22.7,27.1,35.4,56.9,37.8
	l0.7,0.1l-0.2,0.6c-4.5,18.4-15.4,29.6-32.4,33.3c-2,0.4-3.9,0.8-6,1c-1.6,0.2-3.1,0.3-4.4,0.3c-5.8,0-6.6,0.8-6.6,1.3
	c0,0.8,1.3,1.8,7.2,1.8s11.6-0.9,16.8-2.6c5.1-1.9,10.1-4.5,14.8-7.9c10.1-7.5,16-16.6,17.6-27l0.1-0.5h1.1
	c18.6,0,35.3-5.4,49.5-16.1c16.2-11.7,24.4-27,24.4-45.6c0-12.9-4.9-24.1-14.5-33.2c-9.2-9-20.7-13.6-34.2-13.6
	c-11.1,0-20.8,3.4-28.8,10.1c-9.1,7.1-13.6,16-13.6,26.6c0,9,4.1,16.4,12.3,21.8c1.7,1,2.8,1.5,3.4,1.5h0.3l0.3-0.3
	c0-1.7-0.6-2.8-1.8-3.1l-0.4-0.1l0-0.3c-7.3-3.7-11-9.9-11-18.3c0-9.3,4.1-17.5,12.3-24.4c8.1-6.1,16.9-9.2,26.3-9.2
	c12.7,0,23.1,4.4,31.1,13c8.6,8.6,12.9,19.1,12.9,31.3c0,16.2-7.7,30-22.8,41.2c-13.8,9.8-29.2,14.9-46,15.2l-0.6,0l0-0.6
	c0.5-9.5-2.3-18.4-8.3-26.6c-5.9-8.1-13.9-13.2-23.8-15.1c-2.1-0.4-4.2-0.8-6.3-1c-1.9-0.2-4.1-0.3-6.4-0.3c-4.6,0-9.6,0.6-14.7,1.8
	l-0.6,0.1l-1.3-6.2c-0.2-2.4-0.3-4.7-0.3-7c0-15.8,5.2-30.6,15.5-44.1c10-12.8,22.6-22.3,37.4-28.1c14.3-5.9,30.2-8.9,47.2-8.9
	c5.7,0,11.6,0.4,17.6,1.1V1285c-6.1-0.8-12.1-1.3-17.8-1.3c-16.7,0-33.7,3-50.6,8.9c-16.4,5.3-30.2,15.8-40.8,31.3
	c-10.3,14.8-15.5,31.2-15.5,48.8c0,6.6,0.7,12.5,2.1,17.5l0.1,0.5l-0.5,0.2c-11.9,4.8-21.6,12.9-28.7,23.9
	c-7.1,11.1-10.8,23.5-10.8,36.7c0,17.8,6.7,32.3,20,43.1c12.3,9.9,27.8,14.9,46.2,14.9c0.2,0,0.4,0,0.6,0v-3.4
	C479.5,1506.1,479.5,1506.1,479.4,1506.1z M460.8,1392.9c4.1-1.1,8.7-1.7,13.7-1.8c2,0,4.3,0.2,7.3,0.7c2.5,0.2,4.8,0.6,7.2,1
	c7.2,1.7,13,5.8,17.5,12.3c4,6.9,6.1,13.9,6.1,21c0,1.8-0.1,3.2-0.2,3.6l-0.1,0.5l-0.5-0.1c-12-1.2-22.6-4.8-31.5-10.8
	c-9.6-6.4-16.2-15.1-19.8-25.8l-0.2-0.6L460.8,1392.9z"/>
<path class="st2" d="M479.4,1505c-12.6,0-24.6-3-35.6-9.1c-11.8-6.8-19.3-16.1-22.3-27.5c-0.9-3.3-1.5-6.4-1.9-9.1
	c-0.4-2.8-0.7-6-0.7-9.3c0-12.1,3-23.2,9-32.9c6.3-9.7,14.8-16.6,25.3-20.7c8.2,22.6,27.4,35.4,57,37.9c-4.5,17.5-15,28.2-31.4,31.8
	c-1.9,0.4-3.8,0.7-5.9,1c-1.6,0.2-3,0.3-4.3,0.3c-4.7,0-7.8,0.4-7.8,2.4c0,2.6,4.2,3,8.4,3c6.1,0,11.9-0.9,17.2-2.6
	c5.2-1.9,10.3-4.6,15.1-8.1c10.2-7.6,16.2-16.8,18-27.3h0.1c18.9,0,35.8-5.5,50.2-16.3c16.5-11.9,24.8-27.6,24.8-46.5
	c0-13.2-5-24.7-14.9-34c-9.4-9.2-21.2-13.9-35-13.9c-11.4,0-21.3,3.5-29.5,10.4c-9.3,7.3-14.1,16.5-14.1,27.4
	c0,9.4,4.3,17.1,12.9,22.8c2.5,1.5,3.5,1.7,4,1.7h0.8l1-1v-0.4c0-2.7-1.3-3.7-2.2-4.1v-0.1l-0.6-0.4c-6.9-3.6-10.5-9.4-10.5-17.4
	c0-8.9,4-16.8,11.9-23.5c7.8-5.9,16.4-8.9,25.6-8.9c12.4,0,22.5,4.2,30.3,12.6c8.4,8.4,12.6,18.6,12.6,30.5
	c0,15.8-7.5,29.4-22.3,40.3c-13.4,9.5-28.5,14.6-44.7,15c0.3-9.5-2.5-18.5-8.5-26.8c-6-8.4-14.3-13.6-24.5-15.6
	c-2.1-0.4-4.3-0.8-6.4-1c-1.9-0.2-4.2-0.3-6.5-0.3c-4.5,0-9.4,0.6-14.4,1.7l-1-5c-0.2-2.3-0.3-4.6-0.3-6.9
	c0-15.5,5.1-30.1,15.3-43.4c9.9-12.6,22.3-22,37-27.8c14.2-5.8,29.9-8.8,46.8-8.8c5.7,0,11.6,0.4,17.6,1.1v-0.6
	c-6-0.7-11.9-1.1-17.6-1.1c-16.9,0-32.8,3-47,8.8c-14.8,5.9-27.3,15.3-37.2,28c-10.2,13.4-15.4,28.1-15.4,43.7
	c0,2.3,0.1,4.6,0.3,6.9l1.2,5.7c4.9-1.2,9.9-1.8,14.8-1.8c2.3,0,4.5,0.1,6.4,0.3c2.1,0.2,4.2,0.6,6.3,1c10,1.9,18.2,7.1,24.1,15.4
	c6.1,8.4,8.8,17.4,8.4,27c16.7-0.3,32-5.4,45.6-15.1c15-11.1,22.6-24.7,22.6-40.7c0-12-4.3-22.5-12.8-30.9
	c-7.9-8.6-18.2-12.8-30.7-12.8c-9.3,0-18.1,3.1-25.9,9c-8.1,6.8-12.1,14.9-12.1,23.9c0,8.2,3.7,14.2,10.8,17.9l0.3,0.2v0.2
	c1.1,0.3,2.2,1.2,2.2,3.7v0.2l-0.7,0.7h-0.6c-0.5,0-1.3-0.2-3.7-1.6c-8.4-5.6-12.6-13.1-12.6-22.3c0-10.7,4.6-19.8,13.8-27
	c8.1-6.8,17.9-10.3,29.1-10.3c13.5,0,25.3,4.6,34.6,13.7c9.8,9.3,14.7,20.7,14.7,33.6c0,18.6-8.3,34.2-24.6,46
	c-14.3,10.8-31.1,16.2-49.9,16.2c-0.2,0-0.4,0-0.6,0c-1.6,10.5-7.6,19.7-17.9,27.4c-4.7,3.4-9.7,6.1-15,8c-5.3,1.7-11.1,2.6-17,2.6
	c-5.4,0-7.8-0.8-7.8-2.4c0-1.2,2.1-1.8,7.2-1.8c1.2,0,2.7-0.1,4.3-0.3c1.9-0.2,3.8-0.5,6-1c16.8-3.7,27.6-14.7,32-32.9
	c-30-2.4-49.3-15.3-57.4-38.1c-10.8,4-19.6,11.1-26.1,21.1c-6.1,9.8-9.1,20.9-9.1,33.2c0,3.2,0.2,6.3,0.7,9.4c0.4,2.9,1.1,6,1.9,9.1
	c3.1,11.6,10.7,20.9,22.6,27.9c11.1,6.1,23.1,9.1,35.8,9.1c0,0,0.1,0,0.1,0v-0.6C479.5,1505,479.5,1505,479.4,1505z"/>
<path class="st2" d="M480.6,1418.9c8.8,6,19.3,9.5,31.2,10.7c0.1-0.8,0.2-2,0.2-3.6c0-7-2-13.9-6-20.7c-4.3-6.3-10.1-10.5-17.1-12.1
	c-2.3-0.4-4.7-0.8-7.2-1c-2.5-0.4-5-0.7-7.2-0.7c-4.7,0.1-9.3,0.7-13.5,1.8C464.5,1404,471.2,1412.5,480.6,1418.9z M474.5,1392.1
	c1.9,0,4.2,0.2,7.2,0.7c2.4,0.2,4.8,0.6,7.1,0.9c6.8,1.6,12.5,5.6,16.7,11.8c3.9,6.7,5.9,13.5,5.9,20.4c0,1.3-0.1,2.3-0.1,2.9
	c-11.6-1.2-21.8-4.7-30.4-10.5c-9.2-6.2-15.6-14.5-19.2-24.6C465.6,1392.8,469.9,1392.2,474.5,1392.1z"/>
<path class="st2" d="M479,1510.1c-18.6,0-34.3-5.1-46.6-15c-13.4-10.9-20.2-25.5-20.2-43.5c0-13.4,3.7-25.8,10.9-37
	c7.1-11.1,16.8-19.2,28.9-24.1c-1.4-5.2-2.1-11.1-2.1-17.7c0-17.8,5.3-34.3,15.6-49.1c10.8-15.7,24.6-26.2,41.1-31.5
	c16.8-5.9,33.9-8.9,50.8-8.9c5.7,0,11.7,0.4,17.8,1.3v-0.6c-6.1-0.8-12.1-1.3-17.8-1.3c-16.8,0-33.9,3-51,9
	c-16.7,5.3-30.6,16-41.4,31.7c-10.4,15-15.7,31.6-15.7,49.4c0,6.5,0.7,12.4,2,17.3c-11.9,4.9-21.6,13.1-28.7,24.1
	c-7.3,11.3-10.9,23.9-10.9,37.3c0,18.2,6.9,33,20.4,44c12.5,10,28.3,15.1,47,15.1c0.2,0,0.4,0,0.6,0v-0.6
	C479.4,1510,479.2,1510.1,479,1510.1z"/>
<path class="st2" d="M510.5,1302.9c-14.9,5.9-27.4,15.4-37.4,28.1c-10.3,13.5-15.5,28.3-15.5,44.1c0,2.3,0.1,4.7,0.3,7l1.3,6.2
	l0.6-0.1c5.1-1.2,10-1.8,14.7-1.8c2.3,0,4.5,0.1,6.4,0.3c2.1,0.2,4.2,0.6,6.3,1c9.9,1.9,17.9,7,23.8,15.1c5.9,8.2,8.7,17.2,8.3,26.6
	l0,0.6l0.6,0c16.7-0.3,32.2-5.4,46-15.2c15.1-11.2,22.8-25,22.8-41.2c0-12.2-4.4-22.8-12.9-31.3c-7.9-8.6-18.4-13-31.1-13
	c-9.4,0-18.3,3.1-26.3,9.2c-8.2,6.9-12.3,15.1-12.3,24.4c0,8.4,3.7,14.6,11,18.3l0,0.3l0.4,0.1c1.1,0.3,1.8,1.4,1.8,3.1l-0.3,0.3
	h-0.3c-0.6,0-1.7-0.5-3.4-1.5c-8.2-5.5-12.3-12.8-12.3-21.8c0-10.6,4.6-19.5,13.6-26.6c8-6.7,17.6-10.1,28.8-10.1
	c13.5,0,25,4.6,34.2,13.6c9.6,9.2,14.5,20.3,14.5,33.2c0,18.5-8.2,33.9-24.4,45.6c-14.2,10.7-30.9,16.1-49.5,16.1h-1.1l-0.1,0.5
	c-1.6,10.4-7.6,19.5-17.6,27c-4.7,3.4-9.7,6-14.8,7.9c-5.2,1.7-10.9,2.6-16.8,2.6s-7.2-1-7.2-1.8c0-0.5,0.9-1.3,6.6-1.3
	c1.3,0,2.7-0.1,4.4-0.3c2.1-0.2,4-0.5,6-1c17-3.7,28-14.9,32.4-33.3l0.2-0.6l-0.7-0.1c-29.7-2.4-48.9-15.1-56.9-37.8l-0.2-0.5
	l-0.5,0.2c-11,4.1-19.9,11.3-26.4,21.4c-6.1,9.9-9.2,21.2-9.2,33.5c0,3.4,0.2,6.6,0.7,9.5c0.4,2.7,1,5.8,1.9,9.2
	c3.1,11.7,10.8,21.2,22.9,28.2c11.1,6.1,23.3,9.2,36.1,9.2c0,0,0.1,0,0.1,0v-0.6c0,0-0.1,0-0.1,0c-12.8,0-24.8-3.1-35.8-9.1
	c-11.9-6.9-19.5-16.2-22.6-27.9c-0.9-3.2-1.5-6.2-1.9-9.1c-0.5-3.1-0.7-6.2-0.7-9.4c0-12.3,3.1-23.4,9.1-33.2
	c6.5-10.1,15.4-17.1,26.1-21.1c8.1,22.9,27.4,35.7,57.4,38.1c-4.4,18.2-15.2,29.2-32,32.9c-2.1,0.5-4,0.8-6,1
	c-1.6,0.2-3.1,0.3-4.3,0.3c-5.1,0-7.2,0.6-7.2,1.8c0,1.6,2.4,2.4,7.8,2.4c6,0,11.7-0.9,17-2.6c5.3-1.9,10.3-4.6,15-8
	c10.3-7.7,16.2-16.9,17.9-27.4c0.2,0,0.4,0,0.6,0c18.7,0,35.6-5.5,49.9-16.2c16.3-11.8,24.6-27.4,24.6-46c0-13-4.9-24.3-14.7-33.6
	c-9.3-9.1-21-13.7-34.6-13.7c-11.2,0-21,3.5-29.1,10.3c-9.2,7.2-13.8,16.3-13.8,27c0,9.2,4.2,16.7,12.6,22.3
	c2.4,1.4,3.3,1.6,3.7,1.6h0.6l0.7-0.7v-0.2c0-2.4-1.2-3.4-2.2-3.7v-0.2l-0.3-0.2c-7.1-3.7-10.8-9.7-10.8-17.9c0-9,4-17.1,12.1-23.9
	c7.9-6,16.6-9,25.9-9c12.5,0,22.8,4.2,30.7,12.8c8.5,8.5,12.8,18.9,12.8,30.9c0,16-7.6,29.7-22.6,40.7
	c-13.6,9.7-28.9,14.8-45.6,15.1c0.5-9.6-2.3-18.6-8.4-27c-6-8.3-14.1-13.5-24.1-15.4c-2.1-0.4-4.2-0.8-6.3-1
	c-1.9-0.2-4.1-0.3-6.4-0.3c-4.9,0-9.9,0.7-14.8,1.8l-1.2-5.7c-0.2-2.3-0.3-4.6-0.3-6.9c0-15.7,5.2-30.4,15.4-43.7
	c9.9-12.7,22.4-22.1,37.2-28c14.2-5.9,30.1-8.8,47-8.8c5.7,0,11.6,0.4,17.6,1.1v-0.6c-6-0.7-11.9-1.1-17.6-1.1
	C540.6,1294.1,524.7,1297,510.5,1302.9z"/>
<path class="st2" d="M480.3,1419.3c8.9,6,19.5,9.6,31.5,10.8l0.5,0.1l0.1-0.5c0.1-0.5,0.2-1.8,0.2-3.6c0-7.1-2-14.1-6.1-21
	c-4.5-6.5-10.3-10.7-17.5-12.3c-2.4-0.4-4.8-0.8-7.2-1c-3-0.5-5.3-0.7-7.3-0.7c-5,0.1-9.6,0.7-13.7,1.8l-0.6,0.2l0.2,0.6
	C464,1404.2,470.7,1412.9,480.3,1419.3z M474.5,1391.6c2.2,0,4.7,0.3,7.2,0.7c2.5,0.2,4.9,0.6,7.2,1c7,1.6,12.8,5.8,17.1,12.1
	c3.9,6.7,6,13.6,6,20.7c0,1.5-0.1,2.8-0.2,3.6c-11.9-1.2-22.4-4.7-31.2-10.7c-9.4-6.3-16-14.9-19.6-25.5
	C465.2,1392.2,469.8,1391.7,474.5,1391.6z"/>
<path class="st2" d="M506.5,1292.1c-16.5,5.3-30.4,15.9-41.1,31.5c-10.3,14.8-15.6,31.3-15.6,49.1c0,6.5,0.7,12.5,2.1,17.7
	c-12.1,4.9-21.8,13.1-28.9,24.1c-7.2,11.2-10.9,23.6-10.9,37c0,18.1,6.8,32.7,20.2,43.5c12.3,9.9,28,15,46.6,15c0.2,0,0.4,0,0.6,0
	v-0.6c-0.2,0-0.4,0-0.6,0c-18.4,0-34-5-46.2-14.9c-13.3-10.8-20-25.3-20-43.1c0-13.2,3.6-25.5,10.8-36.7c7.1-11,16.7-19.1,28.7-23.9
	l0.5-0.2l-0.1-0.5c-1.4-5-2.1-10.9-2.1-17.5c0-17.6,5.2-34,15.5-48.8c10.7-15.5,24.4-26,40.8-31.3c17-5.9,34-8.9,50.6-8.9
	c5.8,0,11.7,0.4,17.8,1.3v-0.6c-6.1-0.8-12.1-1.3-17.8-1.3C540.4,1283.2,523.3,1286.3,506.5,1292.1z"/>
<path class="st1" d="M739.3,1506.9c-9.4,0-14.1-8.1-14.1-24c0-18.7,4.8-38.2,14.3-57.8c3.8-7.6,9.8-16.8,17.8-27.3
	c3.2-4,6.6-8.1,10.2-12.1c3.6-4.2,7.5-8.6,11.7-13.3c2.3-2.7,5.5-6.1,9.5-10.2c3.9-4.1,8.7-9.1,14.2-14.9
	c21.7-21.7,23.4-21.7,24.1-21.7c0.3,0,0.6,0.2,0.7,0.4c0.2,0.4,0.1,0.9-1.2,2.4c-0.2,0.3-0.6,1-1.9,2.3c-0.8,1.1-2.1,2.4-3.8,4.1
	c-9,9.6-18,21.1-26.5,34.1c-5.7,8.4-11.3,17.8-16.7,27.9c-5.5,9.9-11,20.8-16.4,32.3c-6.5,14.5-11.6,27.2-15.2,38
	c-3.4,10.5-5,19.2-5,26.1c0,5.6,1.5,8.4,4.8,8.4c1.8,0,5.7-1.8,11.4-5.3c5.4-3.6,8.9-6.3,10.7-8.5c0.8-1,1.7-1.4,3-1.4h0.2l0.2,0.2
	c0.6,0.6,0.8,1,0.8,1.3s-0.3,0.8-0.8,1.3C759.5,1500.8,748.9,1506.9,739.3,1506.9z"/>
<path class="st2" d="M739.3,1507.5c-9.7,0-14.7-8.3-14.7-24.6c0-18.9,4.8-38.4,14.4-58.1c4-7.8,10-17.1,17.8-27.4
	c2.8-3.5,5.9-7.2,10.2-12.1c3.3-3.9,7-8.1,11.7-13.3c2.6-3.1,5.9-6.6,9.5-10.2c1.5-1.5,3-3.2,4.7-5c2.9-3,6-6.3,9.5-9.9
	c21.9-21.9,23.6-21.9,24.5-21.9c0.5,0,1,0.3,1.2,0.7c0.4,0.7,0.1,1.4-1.2,3l0,0c-0.2,0.3-0.7,1-1.9,2.3c-0.7,1-2.1,2.4-3.8,4.1
	c-8.9,9.5-17.8,21-26.5,34c-5.8,8.5-11.4,17.9-16.7,27.8c-5.2,9.4-10.6,20-16.4,32.3c-6.6,14.6-11.7,27.3-15.2,37.9
	c-3.3,10.3-5,19-5,26c0,7,2.4,7.8,4.2,7.8c1.6,0,5.4-1.8,11.1-5.2c5.4-3.6,8.9-6.3,10.5-8.3c0.9-1.1,2-1.6,3.4-1.6h0.4l0.4,0.4
	c0.7,0.7,0.9,1.2,0.9,1.7c0,0.6-0.4,1.1-0.9,1.7C759.7,1501.4,748.9,1507.5,739.3,1507.5z M827,1326.1c-1.4,0-9.6,7.5-23.7,21.6
	c-3.4,3.6-6.6,6.9-9.5,9.9c-1.7,1.8-3.3,3.4-4.7,5c-4.5,4.5-7.7,8-9.5,10.2c-4.7,5.2-8.5,9.4-11.7,13.3c-4.3,4.9-7.4,8.6-10.2,12.1
	c-7.8,10.3-13.8,19.4-17.7,27.2c-9.5,19.5-14.3,38.9-14.3,57.6c0,15.6,4.6,23.5,13.6,23.5c9.3,0,19.9-5.9,31.5-17.5
	c0.3-0.4,0.6-0.7,0.6-0.9c0-0.2-0.1-0.4-0.6-0.9l0,0c-1,0-1.8,0.4-2.5,1.2c-1.7,2.1-5.3,4.9-10.8,8.6c-6.1,3.7-9.8,5.4-11.7,5.4
	c-3.6,0-5.4-2.9-5.4-8.9c0-7.1,1.7-15.9,5-26.3c3.5-10.6,8.6-23.4,15.2-38c5.9-12.3,11.2-22.9,16.5-32.3c5.3-10,11-19.4,16.7-27.9
	c8.7-13.1,17.6-24.6,26.6-34.2c1.7-1.7,3.1-3.1,3.8-4.1c1.2-1.2,1.6-1.9,1.8-2.2l0.1-0.1c1.1-1.4,1.2-1.7,1.1-1.8
	C827.1,1326.2,827.1,1326.1,827,1326.1z"/>
<path class="st1" d="M816,1399.2c-4.8-1.2-4.8-4.8,0-6c27.8-6,43.5-19.2,43.5-34.8c0-33.6-50.7-38.4-94.2-38.4H512.8l-24.2,22.8
	h-44.7l-37.5,34.9h-44.7l-49.5,46.7h-32.6l49.5-45.5h-44.7l37.5-34.8h-44.7l24.2-24h-56.8l-166.8,157h56.8l97.9-93.5h32.6
	l-49.5,45.5h44.7l-36.2,34.8h58l36.2-34.8h47.1l49.5-45.5h32.6l-99.1,93.5h59.2l136.6-129.4c12.1-12,35-14.4,50.7-6
	c7.2,3.6,10.9,8.4,10.9,14.4v87.5c0,21.6-49.5,24-71.3,24v9.6h230.8c49.5,0,107.5-4.8,107.5-39.6
	C871.6,1417.2,853.5,1404,816,1399.2z M632.4,1392v-61.1h102.7c55.6,0,87,9.6,87,27.6c0,19.2-35,33.6-87,33.6L632.4,1392L632.4,1392
	z M834.1,1436.4c0,19.2-27.8,28.8-85.8,28.8h-116v-61.1h116C811.2,1404,834.1,1420.8,834.1,1436.4z"/>
<path class="st2" d="M765.3,1477.8H533.9v-10.7h0.6c11.8,0,29-0.7,43.7-3.9c17.9-3.9,27-10.5,27-19.5v-87.5
	c0-5.7-3.6-10.4-10.6-13.9c-15.8-8.5-38.2-5.8-50,5.9l-136.8,129.6h-60.9l99.1-93.5h-31l-49.5,45.5h-47.1l-36.2,34.8h-59.6
	l36.2-34.8h-44.7l49.5-45.5h-30.9l-97.9,93.5H76.3l1-1l167-157.2h58.4l-24.2,24h44.8l-37.5,34.8h44.7l-49.5,45.5h30.9l49.5-46.7
	h44.7l37.5-34.9h44.7l24.2-22.8h252.7c28.2,0,48.4,2.1,63.6,6.6c20.7,6.2,31.2,17.1,31.2,32.3c0,16.2-16.4,29.4-43.9,35.4
	c-1.9,0.5-3.2,1.4-3.2,2.4c0,1,1.2,2,3.1,2.4c36.8,4.7,56,17.8,57.3,38.9c0,15.9-12,27.1-35.6,33.4
	C815.1,1477.1,785.5,1477.8,765.3,1477.8z M535,1476.7h230.2c20.2,0,49.7-0.7,72.2-6.7c23.4-6.3,34.8-16.8,34.8-32.3
	c-1.2-20.5-20.1-33.2-56.3-37.8l-0.1,0c-2.5-0.6-4-2-4-3.6c0-1.6,1.5-2.9,4-3.5c27-5.8,43.1-18.6,43.1-34.3
	c0-33.9-53.4-37.8-93.6-37.8H513l-24.2,22.8h-44.7l-37.5,34.9h-44.7l-49.5,46.7h-34.3l49.5-45.5h-44.7l37.5-34.8h-44.6l24.2-24
	h-55.2L79.2,1476.6h55.1l97.9-93.5h34.3l-49.5,45.5h44.7l-36.2,34.8h56.4l36.2-34.8h47.1l49.5-45.5h34.2l-99.1,93.5h57.5
	l136.4-129.2c12.1-12,35.2-14.8,51.4-6.1c7.4,3.7,11.2,8.7,11.2,14.9v87.5c0,22-49.4,24.5-71.3,24.6V1476.7z M748.3,1465.8H631.7
	v-62.2h116.6c0.2,0,0.4,0,0.5,0c39,0,67.2,6.7,79.4,19c4.2,4.2,6.4,9,6.4,13.9C834.6,1456.2,806.4,1465.8,748.3,1465.8z
	 M632.8,1464.7h115.4c57.4,0,85.2-9.2,85.2-28.2c0-4.6-2.1-9.1-6.1-13.1c-12-12-40-18.6-78.6-18.6c-0.2,0-0.4,0-0.5,0H632.8V1464.7z
	 M735.1,1392.7H631.8v-62.3h103.3c56.5,0,87.6,10,87.6,28.2C822.6,1378.7,786.6,1392.7,735.1,1392.7z M632.9,1391.6h102.1
	c50.1,0,86.4-13.9,86.4-33c0-17.4-30.7-27-86.4-27H632.9V1391.6z"/>
<path class="st3" d="M284.6,1389.5c-10.7,24.9-19.3,42.9-25.5,53.3c-10.6,16.9-24.1,30.7-40.4,41c14.1,4.1,27.3,6.1,39.1,6.1
	c22.3,0,42.4-5.4,59.7-16c20.9-12.3,31.4-28.7,31.4-48.8c0-24-17.9-36.1-53.2-36.1c-2.2,0-4.3,0.1-6.1,0.3
	C287.8,1389.3,286.2,1389.4,284.6,1389.5z"/>
<path class="st3" d="M164.5,1476.1c-12.7,0-18.9,3.5-18.9,10.7c0,6.7,7.8,10,23.2,10c12.2,0,24.1-4.1,35.5-12.1
	c-8.5-2.9-16.2-5.1-22.9-6.5C174,1476.8,168.5,1476.1,164.5,1476.1z"/>
<path class="st3" d="M359.8,1349.8c0.9-3.9,1.3-8,1.3-12.3c-0.1-14.6-8-25-23.4-31c-18.5,15.7-35.6,41.9-51.1,77.8
	C331.2,1379.9,355.8,1368.3,359.8,1349.8z"/>
<path class="st1" d="M309.2,1299.1c8.6,1.1,15.9,2.6,22.3,4.3l1.2,0.3l-1,0.7c-23.6,16.4-44.9,43.8-63.3,81.7
	c-3.9,7.9-8,16.6-12.2,26c-3.9,8.5-8.1,17-12.5,25.3c-5.2,10.1-10.8,18.9-16.8,26.4c-5.5,7-11.3,13.2-17.3,18.3l-0.2,0.2l-0.3-0.1
	c-24.6-7.6-40.4-11.5-46.8-11.5c-14,0-21.1,5.3-21.1,15.8c0,9.4,8.5,14.1,25.3,14.1c12.9,0,28.3-4.8,45.7-14.1l0.2-0.1l0.2,0.1
	c9.7,3.3,19.4,5.7,28.8,7.2c9.8,1.5,19.3,2.3,28,2.3c7.3,0,14.6-0.6,21.7-1.7c6.8-0.8,13.5-2.3,20.1-4.6
	c15.8-5.1,28.9-12.8,38.9-22.8c11.6-11.6,17.4-25.1,17.4-40.2c0-26.3-19.4-39.7-57.7-39.8l-0.1-1.1c12.4-1.6,23.7-4.2,33.8-7.8
	c18.3-6.9,29-16.1,31.6-27.3c0.4-1.6,0.8-3.3,1-5.2c0.5-2,0.7-4,0.7-6c0-17.4-11.3-30.1-33.5-37.6l-1.1-0.4l0.9-0.6
	c9.1-6.2,18.3-9.8,27.5-10.6c1.7-0.2,3.3-0.3,4.6-0.3c1.4-0.2,2.7-0.3,3.5-0.3c0.7,0,1-0.3,1-1c0-0.6-1.3-0.6-2.6-0.6
	c-6.2,0-12.5,1.1-18.8,3.3c-6.1,1.8-12.8,4.8-19.9,8.8l-0.2,0.1l-0.2-0.1c-15.8-4.3-34.3-6.5-54.9-6.5c-1.8,0-3.6,0-5.5,0.1v3.8
	c1,0,2,0,3.1,0C291.4,1297.4,300.9,1298,309.2,1299.1z M205.8,1485.1c-11.8,8.6-24.2,12.9-37,12.9c-16.2,0-24.4-3.8-24.4-11.2
	c0-8,6.6-11.9,20.1-11.9c4.1,0,9.6,0.7,17.1,2.2c7,1.5,15.1,3.8,24.1,6.9l1,0.4L205.8,1485.1z M350,1425.1c0,20.5-10.8,37.3-32,49.8
	c-17.5,10.7-37.7,16.2-60.3,16.2c-12.3,0-26-2.2-40.7-6.5l-1.2-0.4l1.1-0.7c16.6-10.3,30.4-24.2,41.1-41.3
	c6.2-10.4,14.8-28.4,25.6-53.4l0.1-0.3l0.3,0c1.8-0.2,3.5-0.3,5.4-0.3c1.8-0.2,4-0.3,6.2-0.3C331.8,1387.8,350,1400.4,350,1425.1z
	 M337.5,1305.3l0.3,0.1c16.1,6.1,24.4,16.9,24.5,32.1c0,4.3-0.4,8.6-1.3,12.5c-4.2,19.2-29.5,31.1-75.2,35.5l-1,0.1l0.4-0.9
	c15.7-36.7,33.2-63.4,52.1-79.3L337.5,1305.3z"/>
<path class="st2" d="M289.5,1388.7c-1.9,0-3.6,0.1-5.3,0.3c-10.7,25-19.3,43-25.6,53.5c-10.8,17.3-24.7,31.2-41.3,41.5
	c14.6,4.3,28.2,6.5,40.5,6.5c22.4,0,42.6-5.4,60-16.1c21-12.4,31.7-28.9,31.7-49.3c0-24.3-18.1-36.7-53.8-36.7
	C293.5,1388.4,291.4,1388.5,289.5,1388.7z M348.9,1425.1c0,20.1-10.6,36.5-31.4,48.8c-17.3,10.6-37.4,16-59.7,16
	c-11.8,0-25-2.1-39.1-6.1c16.3-10.3,29.9-24.1,40.4-41c6.2-10.4,14.8-28.3,25.5-53.3c1.6-0.2,3.2-0.3,5-0.3c1.9-0.2,3.9-0.3,6.1-0.3
	C331,1389,348.9,1401.1,348.9,1425.1z"/>
<path class="st2" d="M164.5,1475.5c-13.1,0-19.5,3.7-19.5,11.3c0,7.1,8,10.6,23.8,10.6c12.7,0,25-4.3,36.7-12.8
	c-9-3.1-17-5.4-24-6.9C174.5,1476.3,168.8,1475.5,164.5,1475.5z M168.8,1496.8c-15.4,0-23.2-3.4-23.2-10c0-7.2,6.2-10.7,18.9-10.7
	c4,0,9.5,0.7,16.9,2.2c6.7,1.4,14.4,3.6,22.9,6.5C192.9,1492.8,181,1496.8,168.8,1496.8z"/>
<path class="st2" d="M360.4,1349.9c0.9-4.1,1.3-8.3,1.3-12.4c-0.1-14.9-8.2-25.6-24.1-31.6c-18.7,15.8-36.2,42.4-51.9,79.1
	C331.2,1380.6,356.3,1368.8,360.4,1349.9z M337.7,1306.6c15.4,5.9,23.3,16.3,23.4,31c0,4.3-0.4,8.4-1.3,12.3
	c-4,18.5-28.7,30.1-73.2,34.6C302,1348.4,319.2,1322.3,337.7,1306.6z"/>
<path class="st2" d="M377.2,1286.8c-6.3,0-12.8,1.1-19.2,3.3c-6.1,1.8-12.8,4.8-19.9,8.7c-15.8-4.3-34.3-6.5-54.9-6.5
	c-1.8,0-3.6,0-5.5,0.1v0.6c1.8,0,3.6-0.1,5.5-0.1c20.7,0,39.2,2.2,55,6.5c7-3.9,13.7-6.9,20-8.8c6.4-2.2,12.8-3.3,19-3.3
	c1.7,0,3.2,0.1,3.2,1.2c0,1-0.6,1.6-1.6,1.6c-0.8,0-2,0.1-3.5,0.3c-1.4,0-2.9,0.1-4.6,0.3c-9.2,0.8-18.3,4.4-27.2,10.5
	c22.5,7.6,33.9,20.4,33.9,38.1c0,2-0.2,4-0.7,6.1c-0.2,1.7-0.5,3.5-1,5.3c-2.7,11.3-13.4,20.7-32,27.7c-10.2,3.6-21.6,6.2-33.9,7.8
	c38.7,0.1,58.3,13.7,58.3,40.4c0,15.2-5.9,28.9-17.6,40.6c-10.1,10.1-23.3,17.8-39.1,22.9c-6.4,2.2-13.2,3.8-20.2,4.6
	c-7,1.1-14.4,1.7-21.8,1.7c-9,0-18.4-0.8-28.1-2.3c-9.4-1.5-19.1-3.9-28.9-7.2c-17.3,9.3-32.8,14.2-46,14.2
	c-17.2,0-25.9-5-25.9-14.7c0-10.9,7.3-16.4,21.7-16.4c6.6,0,22.4,3.9,47,11.5c5.8-5,11.6-11.1,17.2-18.2
	c5.9-7.4,11.5-16.2,16.7-26.3c4.4-8.3,8.6-16.8,12.5-25.3c3.9-8.7,8-17.5,12.2-26c18.4-37.8,39.7-65.4,63.5-81.9
	c-6.5-1.8-13.9-3.2-22.2-4.3c-8.5-1.1-18-1.6-28.3-1.6c-1,0-2,0-3.1,0v0.6c1,0,2,0,3.1,0c10.6,0,20,0.5,28.2,1.6
	c8.1,1.1,14.9,2.4,21,4c-23.4,16.5-44.4,43.9-62.7,81.4c-3.9,7.9-8,16.6-12.2,26c-3.9,8.5-8.1,17-12.5,25.3
	c-5.1,10-10.7,18.8-16.6,26.2c-5.4,6.9-11.1,12.9-16.9,17.9c-24.9-7.7-40.3-11.4-46.9-11.4c-14.8,0-22.3,5.7-22.3,17
	c0,10.1,8.9,15.3,26.5,15.3c13,0,28.5-4.8,46.1-14.2c9.6,3.2,19.3,5.6,28.8,7.1c9.9,1.5,19.4,2.3,28.2,2.3c7.3,0,14.7-0.6,21.9-1.7
	c6.8-0.8,13.7-2.3,20.3-4.6c16-5.2,29.2-12.9,39.3-23c11.8-11.8,17.8-25.6,17.8-41c0-25.5-17.6-39.2-52.2-40.8
	c9.9-1.6,19.1-3.9,27.4-6.9c18.7-7,29.6-16.5,32.3-28.1c0.4-1.6,0.8-3.4,1-5.3c0.5-2,0.7-4.1,0.7-6.2c0-17.7-11.2-30.5-33.2-38.3
	c8.6-5.7,17.4-9,26-9.8c1.7-0.2,3.2-0.3,4.6-0.3c1.5-0.2,2.6-0.3,3.4-0.3c1.3,0,2.2-0.9,2.2-2.2
	C380.9,1286.8,378.6,1286.8,377.2,1286.8z"/>
<path class="st2" d="M181.6,1477.2c-7.5-1.5-13-2.2-17.1-2.2c-13.5,0-20.1,3.9-20.1,11.9c0,7.4,8.2,11.2,24.4,11.2
	c12.8,0,25.2-4.3,37-12.9l0.9-0.6l-1-0.4C196.7,1481,188.6,1478.7,181.6,1477.2z M168.8,1497.4c-15.8,0-23.8-3.5-23.8-10.6
	c0-7.6,6.4-11.3,19.5-11.3c4.3,0,10,0.8,17,2.2c7,1.5,15,3.8,24,6.9C193.8,1493.1,181.5,1497.4,168.8,1497.4z"/>
<path class="st2" d="M289.5,1388.1c-1.9,0-3.6,0.1-5.4,0.3l-0.3,0l-0.1,0.3c-10.7,25.1-19.3,43-25.6,53.4
	c-10.7,17.1-24.5,31-41.1,41.3l-1.1,0.7l1.2,0.4c14.7,4.3,28.4,6.5,40.7,6.5c22.5,0,42.8-5.4,60.3-16.2c21.2-12.5,32-29.3,32-49.8
	c0-24.7-18.3-37.3-54.4-37.3C293.4,1387.8,291.3,1387.9,289.5,1388.1z M349.5,1425.1c0,20.4-10.7,36.9-31.7,49.3
	c-17.4,10.7-37.6,16.1-60,16.1c-12.3,0-25.9-2.2-40.5-6.5c16.6-10.3,30.5-24.2,41.3-41.5c6.3-10.5,14.9-28.5,25.6-53.5
	c1.7-0.2,3.4-0.3,5.3-0.3c1.9-0.2,4-0.3,6.2-0.3C331.4,1388.4,349.5,1400.8,349.5,1425.1z"/>
<path class="st2" d="M283.2,1293.6c20.6,0,39.1,2.2,54.9,6.5l0.2,0.1l0.2-0.1c7.2-4,13.8-6.9,19.9-8.8c6.3-2.2,12.6-3.3,18.8-3.3
	c1.4,0,2.6,0.1,2.6,0.6c0,0.7-0.3,1-1,1c-0.8,0-2.1,0.1-3.5,0.3c-1.4,0-2.9,0.1-4.6,0.3c-9.1,0.8-18.4,4.4-27.5,10.6l-0.9,0.6
	l1.1,0.4c22.2,7.5,33.5,20.1,33.5,37.6c0,2.1-0.2,4-0.7,6c-0.2,2-0.6,3.7-1,5.2c-2.7,11.2-13.3,20.4-31.6,27.3
	c-10.1,3.5-21.4,6.2-33.8,7.8l0.1,1.1c38.3,0.1,57.7,13.5,57.7,39.8c0,15.1-5.9,28.6-17.4,40.2c-10,10-23.1,17.7-38.9,22.8
	c-6.6,2.3-13.3,3.8-20.1,4.6c-7.1,1.1-14.5,1.7-21.7,1.7c-8.7,0-18.2-0.8-28-2.3c-9.4-1.5-19.1-3.9-28.8-7.2l-0.2-0.1l-0.2,0.1
	c-17.4,9.4-32.8,14.1-45.7,14.1c-16.8,0-25.3-4.8-25.3-14.1c0-10.5,7.1-15.8,21.1-15.8c6.4,0,22.2,3.9,46.8,11.5l0.3,0.1l0.2-0.2
	c5.9-5.1,11.7-11.3,17.3-18.3c5.9-7.5,11.6-16.3,16.8-26.4c4.4-8.3,8.6-16.8,12.5-25.3c4.2-9.4,8.3-18.1,12.2-26
	c18.4-37.8,39.7-65.3,63.3-81.7l1-0.7l-1.2-0.3c-6.4-1.8-13.6-3.2-22.3-4.3c-8.2-1.1-17.8-1.6-28.4-1.6c-1,0-2,0-3.1,0v0.6
	c1,0,2,0,3.1,0c10.3,0,19.8,0.5,28.3,1.6c8.3,1.1,15.7,2.5,22.2,4.3c-23.8,16.5-45.1,44.1-63.5,81.9c-4.2,8.5-8.3,17.3-12.2,26
	c-3.9,8.5-8.1,17-12.5,25.3c-5.2,10.1-10.8,18.9-16.7,26.3c-5.6,7.1-11.4,13.2-17.2,18.2c-24.6-7.6-40.4-11.5-47-11.5
	c-14.4,0-21.7,5.5-21.7,16.4c0,9.7,8.7,14.7,25.9,14.7c13.2,0,28.7-4.9,46-14.2c9.8,3.3,19.5,5.7,28.9,7.2
	c9.7,1.5,19.1,2.3,28.1,2.3c7.4,0,14.8-0.6,21.8-1.7c7-0.8,13.8-2.4,20.2-4.6c15.8-5.1,29-12.8,39.1-22.9
	c11.7-11.7,17.6-25.4,17.6-40.6c0-26.7-19.6-40.3-58.3-40.4c12.3-1.6,23.7-4.2,33.9-7.8c18.6-7,29.3-16.4,32-27.7
	c0.5-1.8,0.8-3.6,1-5.3c0.5-2.1,0.7-4.1,0.7-6.1c0-17.7-11.4-30.5-33.9-38.1c8.9-6.1,18-9.7,27.2-10.5c1.7-0.2,3.2-0.3,4.6-0.3
	c1.5-0.2,2.7-0.3,3.5-0.3c1,0,1.6-0.6,1.6-1.6c0-1.1-1.5-1.2-3.2-1.2c-6.2,0-12.6,1.1-19,3.3c-6.3,1.9-13,4.9-20,8.8
	c-15.8-4.3-34.3-6.5-55-6.5c-1.8,0-3.6,0-5.5,0.1v0.6C279.5,1293.6,281.3,1293.6,283.2,1293.6z"/>
<path class="st2" d="M285.2,1384.8l-0.4,0.9l1-0.1c45.7-4.4,71-16.4,75.2-35.5c0.9-4,1.3-8.2,1.3-12.5c-0.1-15.2-8.3-26-24.5-32.1
	l-0.3-0.1l-0.3,0.2C318.4,1321.4,300.9,1348.1,285.2,1384.8z M337.6,1305.9c15.9,6,24,16.7,24.1,31.6c0,4.1-0.4,8.3-1.3,12.4
	c-4.1,18.9-29.2,30.7-74.7,35.1C301.4,1348.3,318.9,1321.7,337.6,1305.9z"/>
<path class="st3" d="M704.2,1336.6c4.8-4.9,8.4-7.1,11.4-7.1c1.4,0,1.7,0.9,1.7,1.4v0.3l-0.2,0.4c-0.4,0.5-0.8,1-1.3,1.5
	c-0.7,0.8-1.4,1.7-2.2,2.6l-3.3,3.2c5.8,2.1,11.3,4,15.8,5.5c4,1.2,7.2,1.8,8.9,1.8c4.7,0,6.8-2.2,6.8-6.8c0-4-1.9-7.1-5.8-9.5
	c-3.5-1.8-7.7-2.7-12.1-2.7c-7.2,0-15.5,2.5-24.7,7.4c0.4,0.2,0.7,0.3,1.1,0.5c0.3,0.2,0.7,0.3,1,0.5L704.2,1336.6z"/>
<path class="st2" d="M704.4,1337.3c4.7-4.8,8.4-7.2,11.2-7.2c1.1,0,1.2,0.7,1.2,0.9v0.2l-0.1,0.2c-1.1,1.2-2.2,2.7-3.5,4.1l-3.9,3.8
	c6.7,2.4,12.3,4.3,16.6,5.8c4.3,1.2,7.4,1.8,9,1.8c5,0,7.4-2.4,7.4-7.4c0-4.2-2-7.5-6.1-10c-3.7-1.8-7.9-2.8-12.4-2.8
	c-7.6,0-16.3,2.7-26,8c1.2,0.5,2.1,1,3.2,1.4L704.4,1337.3z M699.1,1334.6c9.2-4.9,17.5-7.4,24.7-7.4c4.4,0,8.6,0.9,12.1,2.7
	c3.9,2.4,5.8,5.5,5.8,9.5c0,4.7-2.2,6.8-6.8,6.8c-1.7,0-4.9-0.6-8.9-1.8c-4.5-1.5-9.9-3.4-15.8-5.5l3.3-3.2c0.8-0.9,1.5-1.8,2.2-2.6
	c0.4-0.5,0.9-1.1,1.3-1.5l0.2-0.4v-0.3c0-0.5-0.4-1.4-1.7-1.4c-3,0-6.6,2.3-11.4,7.1l-3-1c-0.4-0.2-0.7-0.3-1-0.5
	C699.9,1335,699.5,1334.8,699.1,1334.6z"/>
<path class="st2" d="M699.7,1336.2c0.3,0.2,0.7,0.3,1.1,0.5l3.7,1.3l0.3-0.3c4.6-4.7,8.2-7,10.8-7c0.2,0,0.6,0,0.6,0.3l0,0.1
	c-0.4,0.5-0.8,1-1.3,1.5c-0.7,0.8-1.4,1.7-2.1,2.5l-4.6,4.5l0.9,0.3c6.2,2.2,11.9,4.2,16.7,5.8c4.1,1.2,7.4,1.8,9.2,1.8
	c5.3,0,8-2.7,8-8c0-4.4-2.1-7.8-6.4-10.5c-3.7-1.9-8.1-2.8-12.6-2.8c-7.7,0-16.5,2.7-26.3,8l-1,0.6l1.1,0.5
	C698.4,1335.5,699.1,1335.8,699.7,1336.2z M723.9,1326.7c4.5,0,8.7,1,12.4,2.8c4,2.5,6.1,5.8,6.1,10c0,5-2.4,7.4-7.4,7.4
	c-1.6,0-4.7-0.6-9-1.8c-4.3-1.4-9.9-3.4-16.6-5.8l3.9-3.8c1.2-1.4,2.4-2.9,3.5-4.1l0.1-0.2v-0.2c0-0.2-0.1-0.9-1.2-0.9
	c-2.9,0-6.5,2.4-11.2,7.2l-3.4-1.2c-1.1-0.5-2-1-3.2-1.4C707.6,1329.4,716.3,1326.7,723.9,1326.7z"/>
<path class="st1" d="M619.3,1411.7c25.5-35.4,50.6-60.7,74.4-75.2l0.3-0.2l8.6,3.8l-0.5,0.6c-3.2,4.1-6.9,9.2-10.9,15.2
	c-3.7,5.5-7.7,12.3-12.7,21.2c-3.5,6.4-7.2,13.2-10.8,20c-2.9,5.8-6.2,12.3-10.5,20.3l-8.3,17.1c-2.7,5.6-5.6,11.5-8.6,17.4
	c-8.7,17-15,27.2-18.7,30.1c-1.5,1.1-3.1,2.1-4.7,3.2l-4.5,2.5c-6.6,3-10.1,4.8-10.5,5.3l0.3,0.3c2.8,0.6,5.6,0.9,8.5,0.9
	c17,0,37-10.1,59.5-30.1c8.9-8,25.7-25.4,48.5-50.3c45.1-50.2,85.1-83.9,119-100.3c15.4-7.4,29.5-11.1,41.9-11.1
	c10.7,0,15.8,3.7,15.8,11.4c0,3.8-1.4,7.4-4.1,10.5c-1.1,1.4-2.2,2.6-3.2,3.6l-0.9,1.2c0,0.6,0.5,1,1.5,1c2.5,0,5.3-2.5,8.3-7.3
	c2.3-4.4,3.5-8.4,3.5-11.6c0-11.5-10.1-17.4-30.1-17.4c-37.9,0-88.8,37.6-151.3,111.7c-30.8,36.4-57.6,61.8-79.8,75.5l-4.3,2.7
	l3.7-3.6c5.4-5.3,10.5-11.9,15.2-19.6c6.4-10.1,12.5-23.1,18-38.6c1.8-5.6,3.2-10.4,4.1-13.6c1.2-3.7,2.3-7,3.2-9.8
	c7-24,16-43,26.6-56.4l0.3-0.3l0.4,0.2c14.9,6.2,25.2,9.4,30.6,9.4c8.4,0,12.6-3.8,12.6-11.3c0-11.4-8.8-17.1-26.2-17.1
	c-9.6,0-20.1,3.5-31.1,10.3l-0.3,0.2l-0.3-0.1c-10.8-5.5-21.7-10.9-32.4-16c-12.1-6.2-22.8-11.4-32.7-15.8
	c-12.4-6-24.8-10.5-36.7-13.3c-5.1-1.2-10.1-2.2-15.1-2.8v10.1c4.8,0.6,9.8,1.4,14.7,2.4c11.5,2.1,23.6,5.4,35.8,9.5
	c5.2,1.8,12.5,4.7,25,10.1c11.5,4.7,26,11.1,38.6,16.7l0.9,0.4l-0.8,0.6c-5.3,3.6-11,8-17.2,13.4c-6.6,5.5-13.2,11.9-19.6,19
	c-5.7,6.2-11.6,12.6-17.1,18.7l-16.4,19l-20,22.2c-4.8,5.6-9.2,10.5-12.6,14.4l-1.3,1.5c-9.1,10.2-17.6,18.9-25,25.7
	c-7.6,7.2-14.8,13.1-21.5,17.7c-19,13-38.9,19.6-59.1,19.6v3.4C525.6,1509.2,572.6,1476.3,619.3,1411.7z M697.6,1334.2
	c9.8-5.3,18.7-8,26.3-8c4.6,0,8.9,1,12.6,2.8c4.3,2.7,6.4,6.1,6.4,10.5c0,5.3-2.7,8-8,8c-1.8,0-5.1-0.7-9.2-1.8
	c-4.7-1.6-10.5-3.6-16.7-5.8l-0.9-0.3l4.6-4.5c0.7-0.8,1.4-1.7,2.1-2.5c0.4-0.5,0.9-1,1.3-1.5l0-0.1c0-0.3-0.4-0.3-0.6-0.3
	c-2.7,0-6.2,2.3-10.8,7l-0.3,0.3l-3.7-1.3c-0.4-0.2-0.8-0.3-1.1-0.5c-0.7-0.3-1.3-0.6-2.1-0.9l-1.1-0.5L697.6,1334.2z"/>
<path class="st2" d="M559.8,1468.4c7.8-7.1,16.1-15.8,25-25.7c3.7-4.2,8.5-9.5,13.9-15.9l20-22.2l16.4-19
	c5.7-6.2,11.4-12.6,17.1-18.7c6.7-7.4,13.4-13.7,19.7-19c6.1-5.2,11.8-9.7,17.3-13.5c-15.2-6.7-28.2-12.4-38.6-16.7
	c-10.8-4.6-19.1-8.1-25-10.1c-12.4-4.2-24.4-7.4-35.7-9.5c-5-1-9.8-1.8-14.6-2.4v0.6c4.8,0.6,9.6,1.3,14.5,2.4
	c11.5,2.1,23.5,5.3,35.7,9.5c5.2,1.8,12.4,4.7,25,10.1c11.2,4.6,25.3,10.8,37.7,16.3c-5.1,3.5-10.5,7.8-16.5,12.9
	c-6.6,5.5-13.2,11.9-19.8,19.1c-5.7,6.2-11.6,12.6-17.1,18.8l-16.4,19l-20,22.2c-4.9,5.6-9.2,10.5-12.6,14.4l-1.3,1.5
	c-9.1,10.2-17.5,18.8-25,25.6c-7.5,7.1-14.7,13.1-21.4,17.6c-18.8,12.8-38.5,19.4-58.4,19.4v0.6c20,0,39.8-6.6,58.8-19.5
	C545.1,1481.4,552.3,1475.5,559.8,1468.4z"/>
<path class="st2" d="M870.7,1292.5c-38.3,0-89.5,37.7-152.2,112.1c-28.8,34.1-54.2,58.5-75.5,72.7c4.2-4.7,8.3-10.2,12-16.3
	c6.5-10.2,12.6-23.2,18.1-38.9c1.8-5.6,3.2-10.5,4.1-13.6c1.2-3.7,2.3-7,3.2-9.8c6.9-23.7,15.7-42.4,26.2-55.7
	c14.9,6.2,25.2,9.3,30.7,9.3c9,0,13.7-4.3,13.7-12.5c0-12.1-9.2-18.2-27.4-18.2c-9.8,0-20.4,3.5-31.5,10.3
	c-10.7-5.4-21.5-10.8-32.1-15.9c-12.1-6.2-22.8-11.4-32.7-15.9c-12.5-6-24.9-10.5-36.9-13.4c-5.2-1.2-10.3-2.2-15.3-2.9v0.6
	c5,0.7,10,1.6,15.2,2.9c11.6,2.8,24,7.2,36.8,13.4c11,5,21.9,10.4,32.7,15.9c10.7,5.2,21.5,10.6,32.4,16
	c11.1-6.9,21.7-10.4,31.4-10.4c17.8,0,26.8,6,26.8,17.7c0,7.9-4.4,11.9-13.2,11.9c-5.5,0-15.9-3.2-30.8-9.4
	c-10.6,13.4-19.5,32.3-26.5,56.2c-0.9,2.8-1.9,6.1-3.2,9.8c-1.1,3.7-2.4,8.4-4.1,13.6c-5.5,15.4-11.5,28.4-18.1,38.7
	c-4.9,8.1-10.1,14.6-15.3,19.7c22.3-13.8,49-39.2,79.7-75.4c62.6-74.3,113.6-111.9,151.7-111.9c20.3,0,30.7,6.1,30.7,18
	c0,3.3-1.2,7.3-3.6,11.9c-3.1,5.1-6,7.6-8.7,7.6c-1.8,0-2.1-1-2.1-1.5v-0.2l1.1-1.4c0.9-0.9,1.9-2,3.2-3.6c2.7-3.1,3.9-6.4,3.9-10.1
	c0-7.3-5-10.9-15.3-10.9c-12.3,0-26.3,3.7-41.6,11.1c-33.7,16.3-73.8,50.1-118.9,100.2c-23.4,25.5-39.7,42.4-48.5,50.4
	c-22.6,20.1-42.8,30.3-59.9,30.3c-2.8,0-5.7-0.3-8.6-1h-0.2l-0.6-0.6v-0.2c0-0.5,0-1,10.8-5.9l4.4-2.5c1.6-1.1,3.3-2.1,4.7-3.2
	c3.7-2.9,9.9-13,18.5-29.9c3-5.9,5.9-11.7,8.6-17.4l8.3-17.1c3.6-6.7,7.1-13.5,10.5-20.3c3.6-6.7,7.2-13.5,10.8-20
	c4.4-8,8.6-15.2,12.7-21.2s7.7-11.1,11-15.3l-7.7-3.4c-23.8,14.5-48.8,39.8-74.3,75c-46.8,64.8-93.9,97.7-140.2,98v0.6
	c46.4-0.3,93.7-33.3,140.6-98.2c25.4-35.1,50.2-60.3,73.9-74.7l6.7,3c-3.1,4-6.7,9-10.5,14.7c-3.7,5.6-7.8,12.3-12.7,21.3
	c-3.5,6.4-7.2,13.2-10.8,20c-2.9,5.8-6.2,12.3-10.5,20.3L648,1434c-2.7,5.6-5.6,11.5-8.5,17.4c-8.6,16.9-14.8,26.9-18.4,29.7
	c-1.4,1-3.1,2.1-4.7,3.1l-4.4,2.5c-11.1,5.1-11.1,5.5-11.1,6.4v0.4l0.9,0.9h0.4c2.8,0.6,5.8,1,8.7,1c17.3,0,37.6-10.2,60.2-30.4
	c9.1-8.2,25.4-25.1,48.6-50.4c45-50.1,84.9-83.7,118.7-100.1c15.3-7.3,29.2-11,41.4-11c9.9,0,14.7,3.4,14.7,10.3
	c0,3.6-1.2,6.8-3.8,9.7c-1.1,1.3-2.2,2.5-3.2,3.6l-1.2,1.6v0.4c0,0.5,0.2,2.1,2.7,2.1c3,0,6-2.6,9.2-7.9c2.4-4.6,3.6-8.7,3.6-12.2
	C901.9,1298.8,891.4,1292.5,870.7,1292.5z"/>
<path class="st2" d="M589.8,1298.1c11.3,2.1,23.4,5.3,35.7,9.5c5.9,2,14.2,5.5,25,10.1c10.5,4.3,23.4,10,38.6,16.7
	c-5.5,3.7-11.2,8.3-17.3,13.5c-6.3,5.3-13,11.6-19.7,19c-5.7,6.1-11.4,12.5-17.1,18.7l-16.4,19l-20,22.2
	c-5.5,6.3-10.2,11.6-13.9,15.9c-8.8,9.9-17.2,18.5-25,25.7c-7.5,7.1-14.7,13.1-21.4,17.7c-19,12.9-38.7,19.5-58.8,19.5v0.6
	c20.2,0,40.1-6.6,59.1-19.6c6.7-4.6,13.9-10.6,21.5-17.7c7.5-6.8,15.9-15.5,25-25.7l1.3-1.5c3.5-3.9,7.8-8.8,12.6-14.4l20-22.2
	l16.4-19c5.5-6.1,11.4-12.6,17.1-18.7c6.5-7.1,13.1-13.5,19.6-19c6.3-5.4,11.9-9.8,17.2-13.4l0.8-0.6l-0.9-0.4
	c-12.7-5.6-27.1-12-38.6-16.7c-12.6-5.4-19.8-8.3-25-10.1c-12.2-4.2-24.3-7.4-35.8-9.5c-5-1-9.9-1.8-14.7-2.4v0.6
	C580,1296.3,584.9,1297.1,589.8,1298.1z"/>
<path class="st2" d="M590.3,1287.9c11.9,2.9,24.3,7.3,36.7,13.3c9.8,4.5,20.5,9.7,32.7,15.8c10.6,5.2,21.5,10.6,32.4,16l0.3,0.1
	l0.3-0.2c11-6.8,21.5-10.3,31.1-10.3c17.4,0,26.2,5.8,26.2,17.1c0,7.5-4.2,11.3-12.6,11.3c-5.4,0-15.7-3.2-30.6-9.4l-0.4-0.2
	l-0.3,0.3c-10.6,13.4-19.6,32.4-26.6,56.4c-0.9,2.8-1.9,6.1-3.2,9.8c-0.9,3.2-2.3,8-4.1,13.6c-5.5,15.5-11.6,28.5-18,38.6
	c-4.7,7.7-9.8,14.3-15.2,19.6l-3.7,3.6l4.3-2.7c22.2-13.8,49-39.2,79.8-75.5c62.4-74.1,113.3-111.7,151.3-111.7
	c20,0,30.1,5.9,30.1,17.4c0,3.2-1.2,7.3-3.5,11.6c-2.9,4.9-5.7,7.3-8.3,7.3c-1,0-1.5-0.3-1.5-1l0.9-1.2c1-1,2.1-2.2,3.2-3.6
	c2.7-3.1,4.1-6.6,4.1-10.5c0-7.7-5.2-11.4-15.8-11.4c-12.4,0-26.4,3.7-41.9,11.1c-33.9,16.4-74,50.2-119,100.3
	c-22.8,24.9-39.6,42.3-48.5,50.3c-22.5,20-42.5,30.1-59.5,30.1c-2.9,0-5.7-0.3-8.5-0.9l-0.3-0.3c0.4-0.5,3.9-2.3,10.5-5.3l4.5-2.5
	c1.6-1,3.3-2.1,4.7-3.2c3.7-2.9,10-13,18.7-30.1c3-5.9,5.9-11.8,8.6-17.4l8.3-17.1c4.2-8,7.6-14.5,10.5-20.3
	c3.6-6.7,7.3-13.6,10.8-20c4.9-8.9,9-15.7,12.7-21.2c4-6,7.7-11.1,10.9-15.2l0.5-0.6l-8.6-3.8l-0.3,0.2
	c-23.9,14.5-48.9,39.8-74.4,75.2c-46.7,64.6-93.7,97.5-139.7,97.8v0.6c46.2-0.3,93.4-33.2,140.2-98c25.5-35.3,50.4-60.5,74.3-75
	l7.7,3.4c-3.3,4.1-6.9,9.2-11,15.3s-8.3,13.3-12.7,21.2c-3.6,6.5-7.2,13.3-10.8,20c-3.4,6.7-6.9,13.5-10.5,20.3l-8.3,17.1
	c-2.7,5.7-5.6,11.5-8.6,17.4c-8.6,16.9-14.9,27-18.5,29.9c-1.4,1.1-3.1,2.1-4.7,3.2l-4.4,2.5c-10.8,4.9-10.8,5.4-10.8,5.9v0.2
	l0.6,0.6h0.2c3,0.7,5.9,1,8.6,1c17.1,0,37.3-10.2,59.9-30.3c8.8-8,25.2-24.9,48.5-50.4c45.1-50.2,85.1-83.9,118.9-100.2
	c15.3-7.3,29.3-11.1,41.6-11.1c10.3,0,15.3,3.6,15.3,10.9c0,3.7-1.2,7-3.9,10.1c-1.2,1.5-2.3,2.7-3.2,3.6l-1.1,1.4v0.2
	c0,0.6,0.3,1.5,2.1,1.5c2.8,0,5.7-2.5,8.7-7.6c2.4-4.6,3.6-8.6,3.6-11.9c0-11.9-10.4-18-30.7-18c-38.1,0-89.2,37.7-151.7,111.9
	c-30.7,36.2-57.4,61.6-79.7,75.4c5.2-5.1,10.4-11.6,15.3-19.7c6.5-10.3,12.6-23.4,18.1-38.7c1.7-5.3,3.1-9.9,4.1-13.6
	c1.2-3.7,2.3-7,3.2-9.8c7-23.9,16-42.9,26.5-56.2c15,6.2,25.4,9.4,30.8,9.4c8.7,0,13.2-4,13.2-11.9c0-11.7-9-17.7-26.8-17.7
	c-9.7,0-20.3,3.5-31.4,10.4c-10.9-5.5-21.7-10.9-32.4-16c-10.8-5.5-21.7-10.9-32.7-15.9c-12.8-6.1-25.2-10.6-36.8-13.4
	c-5.2-1.2-10.3-2.2-15.2-2.9v0.6C580.2,1285.7,585.2,1286.6,590.3,1287.9z"/>
<g>
	<path class="st1" d="M538.7,994.3C538.7,994.3,538.7,994.3,538.7,994.3c-19.1,13-39,19.6-59.1,19.6c0,0-0.1,0-0.1,0
		c-12.8,0-25-3.1-36.1-9.2c-4-2.3-7.5-4.9-10.5-7.7l-3,3c0.9,0.8,1.8,1.7,2.8,2.5c12.3,9.9,27.8,14.9,46.2,14.9c0.2,0,0.4,0,0.6,0
		c22.2-0.1,44.6-7.9,67-23H538.7z"/>
	<path class="st1" d="M517.9,808c12.3-4.1,25.6-6.1,39.8-6.1c5.7,0,11.6,0.4,17.6,1.1c4.8,0.6,9.8,1.4,14.7,2.4
		c2.4,0.4,4.8,0.9,7.2,1.5v-9.3c-2.3-0.7-4.6-1.3-6.9-1.8c-5.1-1.2-10.1-2.2-15.1-2.8c-6.1-0.8-12.1-1.3-17.8-1.3
		c-13,0-26.2,1.8-39.5,5.4V808z"/>
</g>
<g>
	<path d="M221.7-202.5c-13.9,0-25.4-4.1-34.2-12.3c-9.5-8.9-14.4-20-14.4-32.9c0-9.2,2.4-18.4,7-27.2c10.1-20,28.1-35.1,53.6-45
		c19.3-7.5,41.5-11.6,65.9-12.1l0.4,0v4.7l-0.4,0c-10.3,0.2-20.1,1.2-29.2,3c-9.8,1.7-19.4,4.4-28.6,8.2
		c-21.1,8.5-37.1,21.4-47.3,38.4c-6.3,10.6-9.5,21.3-9.5,31.8c0,11,3.5,20.4,10.4,27.7c7,7.6,16.1,11.5,27,11.5
		c12.4,0,23.5-4.5,33-13.4c9.5-9.1,14.3-19.9,14.3-32c0-8.5-2.3-15.5-6.8-20.8c-4.7-5.6-11.4-8.5-19.8-8.5c-6.2,0-11.9,2-16.9,5.8
		c-4.9,4.2-7.4,9.6-7.4,16.1c0,5,2.7,7.4,8.1,7.4c0.3,0,0.5-0.4,0.6-0.7l0-0.1l0.1,0c0.7-0.7,1.2-1,1.7-1.1l0.1,0l0.1,0.1
		c0.8,0.4,1,1,1,1.4c0,2.5-1.4,3.8-4.1,3.8c-7.8,0-11.7-3.6-11.7-11c0-7.1,3.3-13.4,9.7-18.8c6.2-5.1,12.9-7.7,20-7.7
		c9.5,0,17.4,3.2,23.4,9.4c6.2,6.2,9.4,14.2,9.4,23.7c0,14.6-5.8,27-17.3,36.9C249.4-207.2,236.5-202.5,221.7-202.5z"/>
	<path class="st1" d="M299.6-331.7v3.8c-10.3,0.2-20.2,1.2-29.2,3c-9.8,1.7-19.5,4.4-28.7,8.2c-21.2,8.6-37.2,21.5-47.5,38.5
		c-6.4,10.7-9.6,21.5-9.6,32c0,11.2,3.6,20.6,10.5,28c7.1,7.7,16.3,11.6,27.3,11.6c12.5,0,23.7-4.6,33.3-13.6
		c9.6-9.2,14.5-20.1,14.5-32.3c0-8.6-2.3-15.6-6.9-21.1c-4.8-5.7-11.6-8.6-20.1-8.6c-6.3,0-12.1,2-17.2,5.9c-5,4.3-7.6,9.8-7.6,16.4
		c0,5.2,2.9,7.9,8.6,7.9c0.5,0,0.9-0.5,1-1l0,0c0.6-0.6,1.1-0.9,1.4-1l0.1,0c0.5,0.2,0.7,0.6,0.7,1c0,2.2-1.2,3.3-3.6,3.3
		c-7.6,0-11.2-3.4-11.2-10.5c0-7,3.2-13.2,9.6-18.5c6.1-5,12.7-7.6,19.7-7.6c9.4,0,17.2,3.1,23.1,9.2c6.1,6.1,9.2,14,9.2,23.4
		c0,14.5-5.8,26.8-17.1,36.6c-10.7,9.2-23.5,13.9-38.2,13.9c-13.7,0-25.2-4.1-33.9-12.1c-9.4-8.8-14.2-19.8-14.2-32.6
		c0-9.1,2.3-18.2,6.9-27c10-19.9,28-35,53.4-44.8C253.2-327.1,275.3-331.2,299.6-331.7 M300.5-332.5l-0.9,0
		c-24.5,0.5-46.7,4.6-66,12.2c-25.6,9.9-43.7,25.2-53.9,45.2c-4.7,8.9-7,18.2-7,27.4c0,13,4.9,24.2,14.5,33.2
		c8.9,8.2,20.5,12.4,34.5,12.4c14.9,0,27.9-4.7,38.8-14.1c11.5-9.9,17.4-22.5,17.4-37.2c0-9.6-3.2-17.7-9.5-24
		c-6.1-6.3-14.1-9.5-23.7-9.5c-7.2,0-14,2.6-20.3,7.8c-6.6,5.5-9.9,11.9-9.9,19.1c0,7.6,4.1,11.4,12.1,11.4c2.9,0,4.5-1.5,4.5-4.2
		c0-0.8-0.4-1.4-1.2-1.8l-0.1,0l-0.2-0.1l-0.3,0c-0.6,0.1-1.1,0.5-1.9,1.2l-0.2,0.2l0,0.2c-0.1,0.2-0.2,0.3-0.2,0.3
		c-5.2,0-7.7-2.3-7.7-7c0-6.3,2.5-11.6,7.3-15.8c4.9-3.8,10.5-5.7,16.6-5.7c8.3,0,14.9,2.8,19.5,8.3c4.5,5.3,6.7,12.2,6.7,20.5
		c0,12-4.8,22.7-14.2,31.7c-9.4,8.8-20.4,13.3-32.7,13.3c-10.8,0-19.8-3.8-26.7-11.3c-6.9-7.3-10.3-16.5-10.3-27.4
		c0-10.4,3.2-21,9.5-31.6c10.2-16.9,26-29.7,47.1-38.2c9.2-3.8,18.8-6.5,28.5-8.2c9-1.8,18.8-2.8,29.1-3l0.8,0v-0.8v-3.8V-332.5
		L300.5-332.5z"/>
</g>
<g>
	<path d="M500.8-115.4c-18.5,0-34.2-5-46.5-15c-13.4-10.9-20.1-25.5-20.1-43.4c0-13.3,3.6-25.7,10.8-36.9
		c7.2-11.1,16.9-19.2,28.9-24.1l0.1,0l0-0.1c-1.4-5-2.1-11-2.1-17.6c0-17.7,5.2-34.2,15.5-49c10.7-15.6,24.5-26.2,41.1-31.5
		c17-5.9,34.1-8.9,50.8-8.9c5.7,0,11.7,0.4,17.9,1.3l0.4,0.1v11l-0.5-0.1c-6-0.7-11.9-1.1-17.5-1.1c-17,0-32.8,3-47,8.8
		c-14.8,5.9-27.3,15.3-37.3,28c-10.2,13.4-15.4,28.1-15.4,43.8c0,2.3,0.1,4.7,0.3,7l1.2,5.8l0.1,0c5.1-1.2,10.1-1.8,14.8-1.8
		c2.3,0,4.5,0.1,6.4,0.3c2.1,0.2,4.2,0.6,6.3,1c10,1.9,18.1,7.1,24,15.3c6,8.3,8.8,17.4,8.3,26.9l0,0.2l0.2,0
		c16.6-0.3,32-5.4,45.7-15.1c15-11.1,22.6-24.8,22.6-40.9c0-12.1-4.3-22.5-12.8-31c-7.9-8.5-18.2-12.8-30.8-12.8
		c-9.3,0-18.1,3.1-26.1,9.1c-8,6.8-12.1,14.9-12.1,24c0,8.3,3.6,14.3,10.8,18l0.2,0.1l0,0.3l0.1,0c1.3,0.4,2.1,1.6,2.1,3.5l0,0.2
		l-0.6,0.6h-0.5c-0.4,0-1.3-0.2-3.7-1.6c-8.3-5.6-12.5-13-12.5-22.2c0-10.7,4.6-19.8,13.8-26.9c8-6.8,17.8-10.2,29-10.2
		c13.6,0,25.2,4.6,34.5,13.7c9.7,9.2,14.7,20.5,14.7,33.5c0,18.7-8.3,34.1-24.5,45.9c-14.3,10.8-31.1,16.2-49.8,16.2H541l0,0.1
		c-1.6,10.5-7.6,19.7-17.8,27.3c-4.8,3.4-9.8,6.1-14.9,8c-5.3,1.7-11,2.6-17,2.6c-5.1,0-7.6-0.7-7.6-2.3c0-0.8,0.8-1.7,7.1-1.7
		c1.2,0,2.7-0.1,4.3-0.3c2.1-0.2,4-0.5,6-1c16.9-3.7,27.7-14.8,32.1-33l0-0.2l-0.2,0c-29.9-2.4-49.2-15.2-57.2-38.1l0-0.1l-0.1,0.1
		c-10.9,4.1-19.8,11.2-26.2,21.2c-6.1,9.8-9.1,21-9.1,33.3c0,3.4,0.2,6.6,0.7,9.4c0.4,2.7,1,5.8,1.9,9.2c3.1,11.6,10.7,21,22.7,28
		c11.1,6.1,23.2,9.1,35.9,9.1h0.4l0.1,0.4v3.8l-0.4,0C501.5-115.4,500.9-115.4,500.8-115.4z M482.7-231.9
		c3.5,10.6,10.2,19.1,19.7,25.5c8.8,5.9,19.3,9.5,31.3,10.7l0.1,0l0-0.1c0.1-0.5,0.2-1.7,0.2-3.6c0-7-2-14-6-20.8
		c-4.4-6.4-10.2-10.5-17.2-12.1c-2.4-0.4-4.7-0.8-7.1-1c-3-0.5-5.3-0.7-7.3-0.7v-0.4l0,0.4c-4.9,0.1-9.5,0.7-13.6,1.8l-0.1,0
		L482.7-231.9z"/>
	<path class="st1" d="M579.2-341.6c5.8,0,11.7,0.4,17.8,1.3v10.1c-6-0.7-11.9-1.1-17.6-1.1c-17,0-32.9,3-47.2,8.9
		c-14.9,5.9-27.4,15.4-37.4,28.1c-10.3,13.5-15.5,28.3-15.5,44.1c0,2.3,0.1,4.7,0.3,7l1.3,6.2l0.6-0.1c5.1-1.2,10-1.8,14.7-1.8
		c2.3,0,4.5,0.1,6.4,0.3c2.1,0.2,4.2,0.6,6.3,1c9.9,1.9,17.9,7,23.8,15.1c5.9,8.2,8.7,17.2,8.3,26.6l0,0.6l0.6,0
		c16.7-0.3,32.2-5.4,46-15.2c15.1-11.2,22.8-25,22.8-41.2c0-12.2-4.4-22.8-12.9-31.3c-7.9-8.6-18.4-13-31.1-13
		c-9.4,0-18.3,3.1-26.3,9.2c-8.2,6.9-12.3,15.1-12.3,24.4c0,8.4,3.7,14.6,11,18.3l0,0.3l0.4,0.1c1.1,0.3,1.8,1.4,1.8,3.1l-0.3,0.3
		h-0.3c-0.6,0-1.7-0.5-3.4-1.5c-8.2-5.5-12.3-12.8-12.3-21.8c0-10.6,4.6-19.5,13.6-26.6c8-6.7,17.6-10.1,28.8-10.1
		c13.5,0,25,4.6,34.2,13.6c9.6,9.2,14.5,20.3,14.5,33.2c0,18.5-8.2,33.9-24.4,45.6c-14.2,10.7-30.9,16.1-49.5,16.1h-1.1l-0.1,0.5
		c-1.6,10.4-7.6,19.5-17.6,27c-4.7,3.4-9.7,6-14.8,7.9c-5.2,1.7-10.9,2.6-16.8,2.6s-7.2-1-7.2-1.8c0-0.5,0.9-1.3,6.6-1.3
		c1.3,0,2.7-0.1,4.4-0.3c2.1-0.2,4-0.5,6-1c17-3.7,28-14.9,32.4-33.3l0.2-0.6l-0.7-0.1c-29.7-2.4-48.9-15.1-56.9-37.8l-0.2-0.5
		l-0.5,0.2c-11,4.1-19.9,11.3-26.4,21.4c-6.1,9.9-9.2,21.2-9.2,33.5c0,3.4,0.2,6.6,0.7,9.5c0.4,2.7,1,5.8,1.9,9.2
		c3.1,11.7,10.8,21.2,22.9,28.2c11.1,6.1,23.3,9.2,36.1,9.2c0,0,0.1,0,0.1,0v3.4c-0.2,0-0.4,0-0.6,0c-18.4,0-34-5-46.2-14.9
		c-13.3-10.8-20-25.3-20-43.1c0-13.2,3.6-25.5,10.8-36.7c7.1-11,16.7-19.1,28.7-23.9l0.5-0.2l-0.1-0.5c-1.4-5-2.1-10.9-2.1-17.5
		c0-17.6,5.2-34,15.5-48.8c10.7-15.5,24.4-26,40.8-31.3C545.6-338.6,562.6-341.6,579.2-341.6 M534.2-195.2l0.1-0.5
		c0.1-0.5,0.2-1.8,0.2-3.6c0-7.1-2-14.1-6.1-21c-4.5-6.5-10.3-10.7-17.5-12.3c-2.4-0.4-4.8-0.8-7.2-1c-3-0.5-5.3-0.7-7.3-0.7
		c0,0,0,0,0,0c-5,0.1-9.6,0.7-13.7,1.8l-0.6,0.2l0.2,0.6c3.6,10.6,10.2,19.3,19.8,25.8c8.9,6,19.5,9.6,31.5,10.8L534.2-195.2
		 M579.2-342.4c-16.8,0-33.9,3-50.9,9c-16.6,5.3-30.5,16-41.3,31.6c-10.4,14.9-15.6,31.5-15.6,49.3c0,6.6,0.7,12.5,2.1,17.5
		c-12,4.9-21.7,13-28.8,24.1c-7.2,11.3-10.9,23.8-10.9,37.1c0,18.1,6.8,32.8,20.3,43.7c12.4,10,28.2,15.1,46.8,15.1
		c0.1,0,0.2,0,0.4,0c0.1,0,0.2,0,0.3,0l0.8,0v-0.8v-3.4v-0.9l-0.9,0l-0.1,0c0,0,0,0,0,0c-12.7,0-24.7-3.1-35.7-9.1
		c-11.8-6.9-19.4-16.2-22.4-27.7c-0.9-3.3-1.6-6.4-1.9-9.1c-0.4-2.9-0.7-6-0.7-9.4c0-12.2,3.1-23.3,9.1-33.1
		c6.3-9.8,15-16.8,25.7-20.9c8.2,22.8,27.4,35.6,57.2,38c-4.4,17.9-15.1,28.7-31.7,32.3c-1.9,0.4-3.8,0.7-5.9,1
		c-1.6,0.2-3.1,0.3-4.3,0.3c-5.3,0-7.5,0.6-7.5,2.1c0,1.9,2.5,2.7,8.1,2.7c6.1,0,11.8-0.9,17.1-2.6c5.2-1.9,10.3-4.6,15.1-8
		c10.2-7.6,16.2-16.8,17.9-27.3h0.3c18.8,0,35.7-5.5,50-16.3c16.4-11.9,24.7-27.4,24.7-46.3c0-13.1-5-24.5-14.8-33.8
		c-9.4-9.2-21.1-13.8-34.8-13.8c-11.3,0-21.2,3.5-29.3,10.3c-9.2,7.2-13.9,16.4-13.9,27.2c0,9.3,4.3,16.9,12.7,22.5
		c2.5,1.5,3.4,1.7,3.9,1.7h0.3h0.4l0.2-0.2l0.3-0.3l0.3-0.3l0-0.4c0-2-0.8-3.4-2.3-3.8l0-0.2l-0.4-0.2c-7-3.6-10.6-9.5-10.6-17.6
		c0-9,4-17,12-23.7c7.9-5.9,16.5-9,25.8-9c12.4,0,22.7,4.3,30.4,12.7c8.4,8.4,12.7,18.8,12.7,30.7c0,15.9-7.6,29.5-22.5,40.5
		c-13.5,9.6-28.7,14.7-45.2,15c0.4-9.5-2.4-18.6-8.4-26.9c-6-8.3-14.2-13.5-24.3-15.5c-2.1-0.4-4.2-0.8-6.4-1
		c-1.9-0.2-4.1-0.3-6.5-0.3c-4.6,0-9.5,0.6-14.6,1.8l-1.1-5.3c-0.2-2.3-0.3-4.6-0.3-6.9c0-15.6,5.2-30.2,15.3-43.5
		c9.9-12.7,22.4-22,37.1-27.9c14.2-5.9,30-8.8,46.9-8.8c5.6,0,11.4,0.4,17.5,1.1l1,0.1v-1v-10.1v-0.7l-0.7-0.1
		C591-342,585-342.4,579.2-342.4L579.2-342.4z M483.2-231.7c4-1.1,8.4-1.6,13.2-1.7c1.9,0,4.2,0.2,7.2,0.7l0,0l0,0
		c2.4,0.2,4.7,0.6,7.1,0.9c6.9,1.6,12.6,5.6,16.9,12c3.9,6.7,5.9,13.6,5.9,20.5c0,1.5-0.1,2.7-0.2,3.2c-11.8-1.2-22.1-4.7-30.8-10.6
		C493.3-213,486.8-221.4,483.2-231.7L483.2-231.7z"/>
</g>
<g>
	<path d="M761.1-118c-9.7,0-14.6-8.2-14.6-24.4c0-18.9,4.8-38.4,14.4-58c4-7.8,10-17,17.8-27.4c2.8-3.5,5.9-7.2,10.2-12.1
		c3.2-3.8,7.1-8.2,11.7-13.3c2.6-3.1,5.9-6.6,9.5-10.2c1.5-1.5,3.1-3.2,4.8-5c2.8-3,6-6.3,9.4-9.9c21.8-21.8,23.6-21.8,24.4-21.8
		c0.4,0,0.9,0.3,1.1,0.6c0.3,0.6,0,1.3-1.2,2.9l0,0.1c-0.2,0.3-0.7,1-1.9,2.3c-0.7,1-2.1,2.4-3.8,4.1c-8.9,9.5-17.8,21-26.5,34
		c-5.8,8.5-11.4,17.9-16.7,27.8c-5.2,9.4-10.6,19.9-16.4,32.3c-6.6,14.6-11.7,27.4-15.2,37.9c-3.3,10.3-5,19-5,26
		c0,5.3,1.4,7.9,4.4,7.9c1.7,0,5.4-1.7,11.2-5.2c5.4-3.6,8.9-6.3,10.6-8.4c0.9-1.1,1.9-1.6,3.3-1.6h0.4l0.3,0.3
		c0.6,0.6,0.9,1.1,0.9,1.6c0,0.5-0.3,1-0.9,1.6C781.5-124,770.7-118,761.1-118z"/>
	<path class="st1" d="M848.9-299.8c0.3,0,0.6,0.2,0.7,0.4c0.2,0.4,0.1,0.9-1.2,2.4c-0.2,0.3-0.6,1-1.9,2.3c-0.8,1.1-2.1,2.4-3.8,4.1
		c-9,9.6-18,21.1-26.5,34.1c-5.7,8.4-11.3,17.8-16.7,27.9c-5.5,9.9-11,20.8-16.4,32.3c-6.5,14.5-11.6,27.2-15.2,38
		c-3.4,10.5-5,19.2-5,26.1c0,5.6,1.5,8.4,4.8,8.4c1.8,0,5.7-1.8,11.4-5.3c5.4-3.6,8.9-6.3,10.7-8.5c0.8-1,1.7-1.4,3-1.4h0.2l0.2,0.2
		c0.6,0.6,0.8,1,0.8,1.3c0,0.4-0.3,0.8-0.8,1.3c-11.6,11.6-22.3,17.7-31.9,17.7c-9.4,0-14.1-8.1-14.1-24c0-18.7,4.8-38.2,14.3-57.8
		c3.8-7.6,9.8-16.8,17.8-27.3c3.2-4,6.6-8.1,10.2-12.1c3.6-4.2,7.5-8.6,11.7-13.3c2.3-2.7,5.5-6.1,9.5-10.2
		c3.9-4.1,8.7-9.1,14.2-14.9C846.5-299.8,848.2-299.8,848.9-299.8 M848.9-300.6c-1,0-2.8,0-24.7,22c-3.5,3.6-6.6,6.9-9.5,9.9
		c-1.7,1.8-3.3,3.4-4.8,5c-3.6,3.6-6.9,7.1-9.5,10.2c-4.6,5.1-8.5,9.4-11.7,13.3c-4.3,4.9-7.5,8.6-10.2,12.1
		c-7.9,10.3-13.9,19.6-17.9,27.4c-9.6,19.7-14.4,39.3-14.4,58.2c0,16.5,5,24.9,15,24.9c9.7,0,20.6-6,32.5-17.9l0,0l0,0
		c0.6-0.7,1-1.2,1-1.9c0-0.8-0.5-1.4-1-1.9l-0.2-0.2l-0.2-0.2h-0.4h-0.2c-1.5,0-2.7,0.6-3.6,1.8c-1.6,2-5.1,4.7-10.5,8.3
		c-5.7,3.4-9.4,5.1-11,5.1c-1.7,0-4-0.8-4-7.5c0-6.9,1.7-15.6,5-25.9c3.5-10.5,8.6-23.3,15.1-37.9c5.8-12.3,11.2-22.8,16.4-32.2
		c5.3-10,10.9-19.3,16.7-27.8c8.6-13.1,17.5-24.5,26.4-34c1.7-1.7,3.1-3.1,3.9-4.2c1.2-1.2,1.7-2,1.9-2.3l0-0.1
		c1.2-1.5,1.7-2.4,1.2-3.3C850.1-300.3,849.5-300.6,848.9-300.6L848.9-300.6z"/>
</g>
<g>
	<path d="M555.9-147.7v-10.4h0.4c21.3,0,70.9-2.3,70.9-23.6v-87.5c0-5.8-3.6-10.5-10.7-14c-6-3.2-13.2-4.9-20.8-4.9
		c-11.5,0-22.5,4.1-29.4,10.8L429.6-147.8h-60.4l99.1-93.5h-31.4l-49.5,45.5h-47.1L304.1-161h-59.2l36.2-34.8h-44.7l49.5-45.5h-31.3
		l-97.9,93.5h-58l167.7-157.9h58l-24.2,24h44.8l-37.5,34.8H352l-49.5,45.5h31.3l49.5-46.7h44.7l37.5-34.9h44.7l24.2-22.8h252.7
		c28.2,0,48.4,2.1,63.5,6.6c20.6,6.2,31.1,17,31.1,32.2c0,16.1-16.4,29.3-43.8,35.2c-2,0.5-3.3,1.5-3.3,2.6c0,1.1,1.3,2.1,3.3,2.6
		c36.6,4.7,55.9,17.7,57.1,38.8c0,35.9-61.6,40-107.9,40H555.9z M770.1-160.5c57.4,0,85.4-9.3,85.4-28.4c0-8.4-6.7-16-18.9-21.6
		c-15-6.8-37.2-10.3-65.9-10.3H654.6v60.2H770.1z M756.9-233.6c50.2,0,86.6-14,86.6-33.2c0-17.5-30.7-27.2-86.6-27.2H654.7v60.3
		H756.9z"/>
	<path class="st1" d="M787.1-305.3c43.5,0,94.2,4.8,94.2,38.4c0,15.6-15.7,28.8-43.5,34.8c-4.8,1.2-4.8,4.8,0,6
		c37.5,4.8,55.6,18,56.8,38.4c0,34.8-58,39.6-107.5,39.6H556.3v-9.6c21.8,0,71.3-2.4,71.3-24v-87.5c0-6-3.7-10.8-10.9-14.4
		c-6.2-3.3-13.6-5-21-5c-11.2,0-22.4,3.7-29.7,11L429.4-148.2h-59.2l99.1-93.5h-32.6l-49.5,45.5h-47.1l-36.2,34.8h-58l36.2-34.8
		h-44.7l49.5-45.5h-32.6l-97.9,93.5H99.6l166.8-157h56.8l-24.2,24h44.7l-37.5,34.8h44.7l-49.5,45.5H334l49.5-46.7h44.7l37.5-34.9
		h44.7l24.2-22.8H787.1 M654.2-233.2h102.7c52,0,87-14.4,87-33.6c0-18-31.4-27.6-87-27.6H654.2v61.1V-233.2 M654.1-160.1h116
		c58,0,85.8-9.6,85.8-28.8c0-15.6-22.8-32.3-85.2-32.3c-0.2,0-0.4,0-0.6,0h-116V-160.1 M787.1-306.1H534.6h-0.3l-0.2,0.2l-24,22.6
		h-44.4h-0.3l-0.2,0.2l-37.3,34.7h-44.4h-0.3l-0.2,0.2l-49.3,46.5h-30.1l47.9-44l1.6-1.5h-2.2h-42.5l35.9-33.3l1.6-1.5h-2.2h-42.6
		l22.7-22.5l1.5-1.5h-2.1h-56.8h-0.3l-0.2,0.2l-166.8,157l-1.6,1.5h2.1h56.8h0.3l0.2-0.2l97.7-93.3h30.1l-47.9,44l-1.6,1.5h2.2H280
		L245.4-162l-1.5,1.5h2.1h58h0.3l0.2-0.2l36-34.6h46.8h0.3l0.2-0.2l49.3-45.3h30.1l-97.5,92l-1.6,1.5h2.1h59.2h0.3l0.2-0.2
		L566.6-277c6.8-6.7,17.7-10.7,29.1-10.7c7.5,0,14.7,1.7,20.6,4.9c6.9,3.5,10.5,8.1,10.5,13.7v87.5c0,8.9-9,15.4-26.8,19.3
		c-14.7,3.2-31.8,3.9-43.6,3.9h-0.9v0.9v9.6v0.9h0.9h230.8c20.3,0,49.9-0.7,72.5-6.8c23.8-6.4,35.8-17.7,35.8-33.7
		c-1.3-21.3-20.6-34.5-57.5-39.2c-2.1-0.5-2.9-1.5-2.9-2.2c0-0.7,0.8-1.6,3-2.2c27.6-6,44.1-19.3,44.1-35.6
		C882.2-302.1,827.9-306.1,787.1-306.1L787.1-306.1z M655.1-293.5h101.8c55.6,0,86.1,9.5,86.1,26.7c0,9-8.3,17.3-23.5,23.2
		c-15.6,6.2-37.9,9.5-62.7,9.5H655.1V-293.5L655.1-293.5z M655-220.3h115.1l0.6,0c0,0,0,0,0,0c28.2,0,50.9,3.5,65.7,10.2
		c12.1,5.5,18.7,13,18.7,21.2c0,9.3-6.7,16.1-20.6,20.8c-14,4.7-35.7,7.2-64.4,7.2H655V-220.3L655-220.3z"/>
</g>
<g>
	<path d="M188.3-124.2c-17.1,0-25.8-4.9-25.8-14.6c0-10.8,7.3-16.3,21.6-16.3c6.5,0,22.3,3.9,47,11.5l0.1,0l0.1-0.1
		c5.9-5.1,11.7-11.2,17.2-18.2c5.9-7.4,11.5-16.3,16.7-26.3c4.4-8.3,8.6-16.8,12.5-25.3c4.2-9.4,8.3-18.1,12.2-26
		c18.5-37.9,39.8-65.4,63.5-81.8l0.2-0.2l-0.3-0.1c-6.3-1.8-13.6-3.2-22.2-4.3c-8.2-1.1-17.7-1.6-28.3-1.6c-1,0-1.9,0-2.9,0l-0.6,0
		v-4.7l0.4,0c1.8,0,3.6-0.1,5.5-0.1c20.6,0,39.1,2.2,55,6.5l0.1,0l0.1,0c7.2-4,13.9-7,20-8.8c6.3-2.2,12.7-3.3,18.9-3.3
		c1.6,0,3.1,0.1,3.1,1.1c0,0.9-0.5,1.5-1.5,1.5c-0.8,0-2,0.1-3.4,0.3c-1.4,0-2.9,0.1-4.7,0.3c-9.1,0.8-18.2,4.3-27.3,10.5l-0.2,0.2
		l0.3,0.1c22.4,7.6,33.8,20.3,33.8,38c0,2.1-0.2,4.1-0.7,6.1c-0.2,1.9-0.6,3.7-1,5.3c-2.7,11.4-13.4,20.6-31.9,27.6
		c-10,3.5-21.2,6.1-33.5,7.7l0,0.3c38.3,0.2,57.8,13.7,57.8,40.3c0,15.2-5.9,28.8-17.6,40.5c-10.1,10.1-23.2,17.8-39.1,22.9
		c-6.6,2.3-13.4,3.8-20.2,4.6c-7.1,1.1-14.5,1.7-21.8,1.7c-8.8,0-18.2-0.8-28.1-2.3c-9.5-1.5-19.2-3.9-28.9-7.2l-0.1,0l-0.1,0
		C216.7-129,201.2-124.2,188.3-124.2z M186.4-149.9c-13.2,0-19.6,3.7-19.6,11.4c0,7.1,8.1,10.7,23.9,10.7c12.7,0,25.1-4.3,36.8-12.8
		l0.2-0.2l-0.3-0.1c-9-3.1-17-5.4-24-6.9C195.9-149.2,190.5-149.9,186.4-149.9z M239.1-141.2c14.7,4.3,28.3,6.5,40.5,6.5
		c22.5,0,42.7-5.4,60.1-16.1c21.1-12.5,31.8-29.1,31.8-49.4c0-24.4-18.1-36.8-53.9-36.8c-2.2,0-4.3,0.1-6.2,0.3
		c-1.9,0-3.6,0.1-5.4,0.3l-0.1,0l0,0.1c-10.7,25.1-19.3,43.1-25.6,53.5c-10.7,17.2-24.6,31.1-41.3,41.5l-0.3,0.2L239.1-141.2z
		 M359.4-319.5c-18.8,15.9-36.3,42.5-51.9,79.2l-0.1,0.2l0.2,0c45.5-4.4,70.7-16.2,74.8-35.2c0.9-3.9,1.3-8.1,1.3-12.4
		c-0.1-15-8.2-25.7-24.2-31.7L359.4-319.5L359.4-319.5z"/>
	<path class="st1" d="M399.1-337.3c1.4,0,2.6,0.1,2.6,0.6c0,0.7-0.3,1-1,1c-0.8,0-2.1,0.1-3.5,0.3c-1.4,0-2.9,0.1-4.6,0.3
		c-9.1,0.8-18.4,4.4-27.5,10.6l-0.9,0.6l1.1,0.4c22.2,7.5,33.5,20.1,33.5,37.6c0,2.1-0.2,4-0.7,6c-0.2,2-0.6,3.7-1,5.2
		c-2.7,11.2-13.3,20.4-31.6,27.3c-10.1,3.5-21.4,6.2-33.8,7.8l0.1,1.1c38.3,0.1,57.7,13.5,57.7,39.8c0,15.1-5.9,28.6-17.4,40.2
		c-10,10-23.1,17.7-38.9,22.8c-6.6,2.3-13.3,3.8-20.1,4.6c-7.1,1.1-14.5,1.7-21.7,1.7c-8.7,0-18.2-0.8-28-2.3
		c-9.4-1.5-19.1-3.9-28.8-7.2l-0.2-0.1l-0.2,0.1c-17.4,9.4-32.8,14.1-45.7,14.1c-16.8,0-25.3-4.8-25.3-14.1
		c0-10.5,7.1-15.8,21.1-15.8c6.4,0,22.2,3.9,46.8,11.5l0.3,0.1l0.2-0.2c5.9-5.1,11.7-11.3,17.3-18.3c5.9-7.5,11.6-16.3,16.8-26.4
		c4.4-8.3,8.6-16.8,12.5-25.3c4.2-9.4,8.3-18.1,12.2-26c18.4-37.8,39.7-65.3,63.3-81.7l1-0.7l-1.2-0.3c-6.4-1.8-13.6-3.2-22.3-4.3
		c-8.2-1.1-17.8-1.6-28.4-1.6c-1,0-2,0-3.1,0v-3.8c1.8,0,3.6-0.1,5.5-0.1c20.6,0,39.1,2.2,54.9,6.5l0.2,0.1l0.2-0.1
		c7.2-4,13.8-6.9,19.9-8.8C386.6-336.2,392.9-337.3,399.1-337.3 M306.7-239.7l1-0.1c45.7-4.4,71-16.4,75.2-35.5
		c0.9-4,1.3-8.2,1.3-12.5c-0.1-15.2-8.3-26-24.5-32.1l-0.3-0.1l-0.3,0.2c-18.8,15.9-36.4,42.6-52.1,79.3L306.7-239.7 M279.7-134.2
		c22.5,0,42.8-5.4,60.3-16.2c21.2-12.5,32-29.3,32-49.8c0-24.7-18.3-37.3-54.4-37.3c-2.2,0-4.4,0.1-6.2,0.3c-1.9,0-3.6,0.1-5.4,0.3
		l-0.3,0l-0.1,0.3c-10.7,25.1-19.3,43-25.6,53.4c-10.7,17.1-24.5,31-41.1,41.3l-1.1,0.7l1.2,0.4
		C253.7-136.4,267.4-134.2,279.7-134.2 M190.7-127.3c12.8,0,25.2-4.3,37-12.9l0.9-0.6l-1-0.4c-9-3.1-17.1-5.4-24.1-6.9
		c-7.5-1.5-13-2.2-17.1-2.2c-13.5,0-20.1,3.9-20.1,11.9C166.3-131.1,174.5-127.3,190.7-127.3 M399.1-338.2c-6.3,0-12.7,1.1-19.1,3.3
		c-6.1,1.8-12.8,4.8-19.9,8.8c-15.8-4.3-34.3-6.5-55-6.5c-1.7,0-3.5,0-5.5,0.1l-0.8,0v0.8v3.8v0.9l0.9,0l0.2,0c0.9,0,1.9,0,2.8,0
		c10.6,0,20.1,0.5,28.3,1.6c8.3,1.1,15.4,2.5,21.6,4.1c-23.5,16.5-44.7,43.9-63.1,81.7c-3.9,7.9-8,16.6-12.2,26
		c-3.9,8.5-8.1,17-12.5,25.3c-5.2,10-10.8,18.8-16.7,26.3c-5.5,6.9-11.2,13-17,18.1c-24.6-7.6-40.4-11.5-46.9-11.5
		c-14.6,0-22,5.6-22,16.7c0,9.9,8.8,15,26.2,15c13,0,28.5-4.8,46-14.2c9.7,3.3,19.4,5.7,28.8,7.2c9.9,1.5,19.4,2.3,28.1,2.3
		c7.3,0,14.7-0.6,21.8-1.7c6.8-0.8,13.6-2.3,20.2-4.6c15.9-5.1,29.1-12.9,39.2-23c11.7-11.7,17.7-25.5,17.7-40.8
		c0-26-18.5-39.7-54.9-40.6c11-1.6,21.2-4.1,30.3-7.3c18.6-7,29.4-16.4,32.2-27.9c0.4-1.6,0.8-3.3,1-5.3c0.5-2,0.7-4.1,0.7-6.2
		c0-17.7-11.3-30.5-33.6-38.2c8.8-6,17.8-9.4,26.6-10.1c1.7-0.2,3.2-0.3,4.6-0.3h0.1l0.1,0c1.4-0.2,2.6-0.3,3.4-0.3
		c1.2,0,1.9-0.7,1.9-1.9C402.6-338.2,400.5-338.2,399.1-338.2L399.1-338.2z M308-240.6c15.6-36.3,32.9-62.7,51.5-78.4
		c15.7,6,23.7,16.5,23.8,31.3c0,4.3-0.4,8.4-1.3,12.3C377.9-256.8,353-245.1,308-240.6L308-240.6z M306.3-236
		c1.7-0.2,3.3-0.3,5.1-0.3h0l0,0c1.8-0.2,3.9-0.3,6.1-0.3c35.5,0,53.5,12.3,53.5,36.4c0,20.2-10.6,36.7-31.6,49.1
		c-17.3,10.7-37.5,16.1-59.9,16.1c-12,0-25.4-2.1-39.8-6.3c16.5-10.3,30.2-24.2,40.9-41.3C287-193.1,295.6-211,306.3-236L306.3-236z
		 M190.7-128.2c-15.6,0-23.5-3.5-23.5-10.3c0-7.4,6.3-11,19.2-11c4.1,0,9.5,0.7,16.9,2.2c6.8,1.5,14.7,3.7,23.4,6.7
		C215.2-132.4,203.1-128.2,190.7-128.2L190.7-128.2z"/>
</g>
<g>
	<path d="M501-119.6h0.4c20.1,0,39.9-6.6,58.8-19.5c6.7-4.6,13.9-10.5,21.4-17.7c7.5-6.8,15.9-15.5,25-25.7l1.3-1.5
		c3.4-3.9,7.7-8.7,12.6-14.4l20-22.2l16.4-19c5.5-6.1,11.4-12.6,17.1-18.7c6.5-7.1,13.1-13.5,19.7-19c6.3-5.4,11.9-9.8,17.3-13.4
		l0.2-0.1l-0.2-0.1c-12.7-5.6-27.2-12-38.6-16.7c-12.5-5.4-19.8-8.3-25-10.1c-12.2-4.2-24.3-7.4-35.8-9.5c-4.9-1-9.8-1.8-14.7-2.4
		l-0.4,0v-11l0.5,0.1c5,0.7,10.1,1.7,15.1,2.8c12,2.9,24.3,7.4,36.8,13.4c9.8,4.5,20.5,9.7,32.7,15.9c10.7,5.2,21.6,10.6,32.4,16
		l0.1,0l0.1,0c11.1-6.9,21.6-10.4,31.3-10.4c17.7,0,26.7,5.9,26.7,17.5c0,7.8-4.4,11.8-13,11.8c-5.5,0-15.8-3.2-30.8-9.4l-0.1,0
		l-0.1,0.1c-10.6,13.4-19.5,32.3-26.5,56.3c-0.9,2.8-1.9,6.1-3.2,9.8c-0.9,3.1-2.3,8-4.1,13.6c-5.5,15.5-11.6,28.6-18.1,38.7
		c-4.7,7.7-9.8,14.3-15.3,19.7l-0.9,0.9l1.1-0.7c22.1-13.7,49-39.1,79.7-75.5c62.5-74.2,113.5-111.9,151.6-111.9
		c20.2,0,30.5,6,30.5,17.8c0,3.3-1.2,7.4-3.5,11.8c-3,5-5.9,7.5-8.6,7.5c-1.7,0-2-0.9-2-1.4v-0.1l1-1.3c1-1.1,2.1-2.3,3.2-3.6
		c2.6-3,4-6.5,4-10.2c0-7.4-5-11-15.4-11c-12.3,0-26.3,3.7-41.7,11.1c-33.9,16.4-73.9,50.1-118.9,100.2
		c-22.8,24.9-39.6,42.3-48.5,50.3c-22.6,20.1-42.7,30.2-59.8,30.2c-2.9,0-5.8-0.3-8.6-1l-0.1,0l-0.7-0.6l0.2-0.3
		c0.2-0.3,0.6-0.9,10.6-5.5l4.5-2.5c1.6-1,3.2-2.1,4.7-3.1c3.6-2.9,9.9-12.9,18.6-29.9c3-5.9,5.9-11.7,8.6-17.4l8.3-17.1
		c4.2-8,7.6-14.5,10.5-20.3c3.5-6.7,7.3-13.5,10.8-20c5-8.9,9-15.7,12.7-21.2c4-6,7.7-11.2,10.9-15.3l0.1-0.1l-7.9-3.5l-0.1,0
		c-23.8,14.5-48.8,39.8-74.3,75.1c-46.7,64.7-93.8,97.6-140,97.9l-0.4,0V-119.6z M731.1-285.9c6.2,2.2,11.9,4.2,16.6,5.8
		c4.1,1.2,7.3,1.8,9.1,1.8c5.1,0,7.5-2.5,7.5-7.5c0-4.3-2-7.6-6.2-10.1c-3.6-1.8-7.9-2.8-12.4-2.8c-7.6,0-16.4,2.7-26.1,8l-0.3,0.1
		l0.3,0.1c0.7,0.3,1.4,0.6,2.1,0.9l0.2,0.1c0.3,0.1,0.6,0.3,1,0.5l3.4,1.2l0.1-0.1c4.7-4.8,8.4-7.2,11.1-7.2c0.9,0,1,0.6,1,0.7
		l0,0.2l-0.1,0.1c-0.4,0.5-0.8,1-1.3,1.5c-0.7,0.8-1.4,1.7-2.1,2.5l-4.1,4L731.1-285.9z"/>
	<path class="st1" d="M597.1-340.3c4.9,0.7,10,1.6,15.1,2.8c11.9,2.9,24.3,7.3,36.7,13.3c9.8,4.5,20.5,9.7,32.7,15.8
		c10.6,5.2,21.5,10.6,32.4,16l0.3,0.1l0.3-0.2c11-6.8,21.5-10.3,31.1-10.3c17.4,0,26.2,5.8,26.2,17.1c0,7.5-4.2,11.3-12.6,11.3
		c-5.4,0-15.7-3.2-30.6-9.4l-0.4-0.2l-0.3,0.3c-10.6,13.4-19.6,32.4-26.6,56.4c-0.9,2.8-1.9,6.1-3.2,9.8c-0.9,3.2-2.3,8-4.1,13.6
		c-5.5,15.5-11.6,28.5-18,38.6c-4.7,7.7-9.8,14.3-15.2,19.6l-3.7,3.6l4.3-2.7c22.2-13.8,49-39.2,79.8-75.5
		c62.4-74.1,113.3-111.7,151.3-111.7c20,0,30.1,5.9,30.1,17.4c0,3.2-1.2,7.3-3.5,11.6c-2.9,4.9-5.7,7.3-8.3,7.3c-1,0-1.5-0.3-1.5-1
		l0.9-1.2c1-1,2.1-2.2,3.2-3.6c2.7-3.1,4.1-6.6,4.1-10.5c0-7.7-5.2-11.4-15.8-11.4c-12.4,0-26.4,3.7-41.9,11.1
		c-33.9,16.4-74,50.2-119,100.3c-22.8,24.9-39.6,42.3-48.5,50.3c-22.5,20-42.5,30.1-59.5,30.1c-2.9,0-5.7-0.3-8.5-0.9l-0.3-0.3
		c0.4-0.5,3.9-2.3,10.5-5.3l4.5-2.5c1.6-1,3.3-2.1,4.7-3.2c3.7-2.9,10-13,18.7-30.1c3-5.9,5.9-11.8,8.6-17.4l8.3-17.1
		c4.2-8,7.6-14.5,10.5-20.3c3.6-6.7,7.3-13.6,10.8-20c4.9-8.9,9-15.7,12.7-21.2c4-6,7.7-11.1,10.9-15.2l0.5-0.6l-8.6-3.8l-0.3,0.2
		c-23.9,14.5-48.9,39.8-74.4,75.2c-46.7,64.6-93.7,97.5-139.7,97.8v-3.4c20.2,0,40.1-6.6,59.1-19.6c6.7-4.6,13.9-10.6,21.5-17.7
		c7.5-6.8,15.9-15.5,25-25.7l1.3-1.5c3.5-3.9,7.8-8.8,12.6-14.4l20-22.2l16.4-19c5.5-6.1,11.4-12.6,17.1-18.7
		c6.5-7.1,13.1-13.5,19.6-19c6.3-5.4,11.9-9.8,17.2-13.4l0.8-0.6l-0.9-0.4c-12.7-5.6-27.1-12-38.6-16.7c-12.6-5.4-19.8-8.3-25-10.1
		c-12.2-4.2-24.3-7.4-35.8-9.5c-5-1-9.9-1.8-14.7-2.4V-340.3 M726.4-287.4l0.3-0.3c4.6-4.7,8.2-7,10.8-7c0.2,0,0.6,0,0.6,0.3l0,0.1
		c-0.4,0.5-0.8,1-1.3,1.5c-0.7,0.8-1.4,1.7-2.1,2.5l-4.6,4.5l0.9,0.3c6.2,2.2,11.9,4.2,16.7,5.8c4.1,1.2,7.4,1.8,9.2,1.8
		c5.3,0,8-2.7,8-8c0-4.4-2.1-7.8-6.4-10.5c-3.7-1.9-8.1-2.8-12.6-2.8c-7.7,0-16.5,2.7-26.3,8l-1,0.6l1.1,0.5
		c0.8,0.3,1.4,0.6,2.1,0.9c0.3,0.2,0.7,0.3,1.1,0.5L726.4-287.4 M596.2-341.3v1v10.1v0.8l0.8,0.1c4.9,0.6,9.8,1.4,14.7,2.4
		c11.5,2.1,23.5,5.3,35.7,9.5c5.2,1.8,12.4,4.7,25,10.1c11.3,4.7,25.6,11,38.2,16.5c-5.2,3.6-10.8,7.9-16.9,13.2
		c-6.6,5.5-13.2,11.9-19.7,19.1c-5.7,6.2-11.6,12.6-17.1,18.7l-16.4,19l-20,22.2c-4.9,5.7-9.2,10.5-12.6,14.4l-1.3,1.5
		c-9.1,10.2-17.5,18.8-25,25.6c-7.5,7.1-14.7,13.1-21.4,17.7c-18.9,12.9-38.6,19.4-58.6,19.5l-0.8,0v0.8v3.4v0.9l0.9,0
		c46.3-0.3,93.6-33.3,140.4-98.1c25.4-35.2,50.4-60.4,74.1-74.9l7.2,3.2c-3.2,4.1-6.8,9.1-10.7,15c-3.7,5.6-7.7,12.3-12.7,21.3
		c-3.5,6.5-7.2,13.3-10.8,20c-2.9,5.8-6.2,12.3-10.5,20.3l-8.3,17.1c-2.7,5.7-5.6,11.5-8.5,17.4c-8.7,16.9-14.9,26.9-18.5,29.8
		c-1.4,1-3,2.1-4.6,3.1l0,0l-4.4,2.5c-10.1,4.6-10.5,5.2-10.8,5.6l-0.5,0.7l0.6,0.5l0.3,0.3l0.2,0.1l0.2,0c2.8,0.6,5.8,1,8.7,1
		c17.2,0,37.4-10.2,60.1-30.3c8.9-8,25.7-25.5,48.5-50.4c45-50.1,85-83.8,118.8-100.2c15.3-7.3,29.3-11,41.5-11
		c10.2,0,15,3.4,15,10.6c0,3.6-1.3,7-3.9,9.9c-1.1,1.4-2.2,2.5-3.2,3.5l0,0l0,0.1l-0.9,1.2l-0.2,0.2v0.3c0,0.4,0.2,1.8,2.4,1.8
		c2.9,0,5.8-2.5,9-7.7l0,0l0,0c2.3-4.5,3.6-8.6,3.6-12c0-12.1-10.4-18.3-30.9-18.3c-38.2,0-89.3,37.7-151.9,112
		c-29.7,35.2-55.8,60.1-77.5,74c4.8-5,9.4-11.1,13.6-18c6.5-10.2,12.5-23.2,18.1-38.8c1.8-5.6,3.2-10.5,4.1-13.7
		c1.2-3.7,2.3-7,3.2-9.8c7-23.8,15.8-42.6,26.3-56c14.9,6.2,25.3,9.4,30.8,9.4c8.8,0,13.4-4.2,13.4-12.2c0-11.9-9.1-18-27.1-18
		c-9.8,0-20.3,3.5-31.4,10.3c-10.8-5.4-21.6-10.8-32.2-16c-12.1-6.2-22.8-11.4-32.7-15.9c-12.5-6-24.9-10.5-36.9-13.4
		c-5-1.2-10.1-2.2-15.2-2.9L596.2-341.3L596.2-341.3z M720.4-290.7c9.5-5.1,18-7.7,25.4-7.7c4.4,0,8.6,0.9,12.2,2.7
		c4,2.5,5.9,5.7,5.9,9.8c0,4.8-2.3,7.1-7.1,7.1c-1.7,0-4.9-0.6-9-1.8c-4.6-1.5-10.2-3.5-16.2-5.6l3.6-3.5l0,0l0,0
		c0.7-0.9,1.5-1.8,2.1-2.5c0.4-0.5,0.8-1,1.2-1.5l0.2-0.2l0-0.3l0-0.1l0,0v0c0-0.5-0.4-1.1-1.4-1.1c-2.9,0-6.5,2.3-11.3,7.2
		l-3.2-1.1c-0.4-0.2-0.7-0.3-1-0.4l-0.1,0l-0.1,0C721.4-290.2,720.9-290.4,720.4-290.7L720.4-290.7z"/>
</g>
<g>
	<g>
		<path d="M560.6-138.9C560.6-138.8,560.6-138.8,560.6-138.9c-19.1,13-39,19.6-59.1,19.6c0,0-0.1,0-0.1,0c-12.8,0-25-3.1-36.1-9.2
			c-4-2.3-7.5-4.9-10.5-7.7l-3,3c0.9,0.8,1.8,1.7,2.8,2.5c12.3,9.9,27.8,14.9,46.2,14.9c0.2,0,0.4,0,0.6,0c22.2-0.1,44.6-7.9,67-23
			H560.6z"/>
	</g>
	<g>
		<path d="M539.8-325.1c12.3-4.1,25.6-6.1,39.8-6.1c5.7,0,11.6,0.4,17.6,1.1c4.8,0.6,9.8,1.4,14.7,2.4c2.4,0.4,4.8,0.9,7.2,1.5v-9.3
			c-2.3-0.7-4.6-1.3-6.9-1.8c-5.1-1.2-10.1-2.2-15.1-2.8c-6.1-0.8-12.1-1.3-17.8-1.3c-13,0-26.2,1.8-39.5,5.4V-325.1z"/>
	</g>
</g>
<g>
	<path d="M252.4-320.5c5.9-1.9,11.9-3.3,18-4.4c9.1-1.8,18.9-2.8,29.2-3c1,0,2,0,3.1,0c10.6,0,20.1,0.5,28.4,1.6
		c2.8,0.4,5.4,0.8,7.9,1.2v-4.4c-10.5-1.5-21.8-2.2-33.8-2.2c-1.8,0-3.6,0-5.5,0.1c-16.9,0.4-32.7,2.4-47.3,6.2V-320.5z"/>
</g>
</svg>
