<svg width="795" height="157" viewBox="0 0 795 157" fill="none" xmlns="http://www.w3.org/2000/svg">
<path d="M738.214 79.0992C733.381 77.9008 733.381 74.3053 738.214 73.1069C766.003 67.1145 781.71 53.9313 781.71 38.3511C781.71 4.79389 730.965 0 687.47 0H434.954L410.79 22.771H366.087L328.632 57.5267H283.929L234.392 104.267H201.771L251.307 58.7252H206.603L244.058 23.9695H199.354L223.518 0H166.733L0 157H56.7857L154.65 63.5191H187.272L137.736 109.061H182.439L146.193 143.817H204.187L240.433 109.061H287.553L337.09 63.5191H369.711L270.638 157H329.84L466.368 27.5649C478.45 15.5802 501.406 13.1832 517.112 21.5725C524.362 25.1679 527.986 29.9618 527.986 35.9542V123.443C527.986 145.015 478.45 147.412 456.702 147.412V157H687.47C737.006 157 795 152.206 795 117.45C793.792 97.0763 775.669 83.8931 738.214 79.0992ZM554.567 71.9084V10.7863H657.264C712.842 10.7863 744.255 20.374 744.255 38.3511C744.255 57.5267 709.217 71.9084 657.264 71.9084H554.567ZM756.337 116.252C756.337 135.427 728.549 145.015 670.555 145.015H554.567V83.8931H670.555C733.381 83.8931 756.337 100.672 756.337 116.252Z" fill="black"/>
</svg>
