<svg width="43" height="47" viewBox="0 0 43 47" fill="none" xmlns="http://www.w3.org/2000/svg">
<g clip-path="url(#clip0_539_583)">
<path d="M27.8436 4.0606C28.9313 6.96099 31.8317 8.41118 35.0946 8.04863C41.2579 7.32354 45.246 14.212 41.6205 19.2876C39.8077 21.8255 39.8077 25.0884 41.6205 27.6262C45.246 32.7019 41.2579 39.2278 35.0946 38.8652C32.1942 38.5027 29.2938 40.3154 27.8436 42.8533C25.3058 48.2915 17.6923 48.2915 15.1545 42.8533C14.0668 39.9529 11.1664 38.5027 7.9035 38.8652C1.74017 39.5903 -2.24786 32.7019 1.37763 27.6262C3.19037 25.0884 3.19037 21.8255 1.37763 19.2876C-2.24786 14.212 1.74017 7.68608 7.9035 8.04863C10.8039 8.41118 13.7043 6.59844 15.1545 4.0606C17.3297 -1.37762 25.3058 -1.37762 27.8436 4.0606Z" fill="black"/>
</g>
<defs>
<clipPath id="clip0_539_583">
<rect width="42.9982" height="46.95" fill="white"/>
</clipPath>
</defs>
</svg>
