<?xml version="1.0" encoding="utf-8"?>
<!-- Generator: Adobe Illustrator 28.2.0, SVG Export Plug-In . SVG Version: 6.00 Build 0)  -->
<svg version="1.1" id="Vrstva_1" xmlns="http://www.w3.org/2000/svg" xmlns:xlink="http://www.w3.org/1999/xlink" x="0px" y="0px"
	 viewBox="0 0 43 47" style="enable-background:new 0 0 43 47;" xml:space="preserve">
<style type="text/css">
	.st0{clip-path:url(#SVGID_00000170239771133190389040000013507884861865819832_);fill:#FFFFFF;}
</style>
<g>
	<defs>
		<rect id="SVGID_1_" width="43" height="47"/>
	</defs>
	<clipPath id="SVGID_00000081631578125461425420000005561738032422466453_">
		<use xlink:href="#SVGID_1_"  style="overflow:visible;"/>
	</clipPath>
	<path style="clip-path:url(#SVGID_00000081631578125461425420000005561738032422466453_);fill:#FFFFFF;" d="M27.8,4.1
		c1.1,2.9,4,4.4,7.3,4c6.2-0.7,10.2,6.2,6.5,11.2c-1.8,2.5-1.8,5.8,0,8.3c3.6,5.1-0.4,11.6-6.5,11.2c-2.9-0.4-5.8,1.5-7.3,4
		c-2.5,5.4-10.2,5.4-12.7,0c-1.1-2.9-4-4.4-7.3-4c-6.2,0.7-10.2-6.2-6.5-11.2c1.8-2.5,1.8-5.8,0-8.3C-2.2,14.2,1.7,7.7,7.9,8
		c2.9,0.4,5.8-1.5,7.3-4C17.3-1.4,25.3-1.4,27.8,4.1z"/>
</g>
</svg>
