<?xml version="1.0" encoding="utf-8"?>
<!-- Generator: Adobe Illustrator 28.2.0, SVG Export Plug-In . SVG Version: 6.00 Build 0)  -->
<svg version="1.1" id="Vrstva_1" xmlns="http://www.w3.org/2000/svg" xmlns:xlink="http://www.w3.org/1999/xlink" x="0px" y="0px"
	 viewBox="0 0 47 47" style="enable-background:new 0 0 47 47;" xml:space="preserve">
<style type="text/css">
	.st0{fill:#FFFFFF;}
</style>
<path class="st0" d="M23.5,0C10.5,0,0,10.5,0,23.5S10.5,47,23.5,47S47,36.5,47,23.5S36.5,0,23.5,0z M41.1,20.5
	c0.6,3.5,0.1,6.9-1.2,9.9c-0.6,1.4-2.4,1.7-3.5,0.8L14.3,11.6c-1.1-1-1-2.8,0.3-3.5c3.4-2,7.5-2.8,11.9-2.1
	C33.9,7.1,39.9,13.1,41.1,20.5z M5.9,26.5c-0.6-3.5-0.1-6.9,1.2-9.9c0.6-1.4,2.4-1.7,3.5-0.8l22.1,19.6c1.1,1,0.9,2.8-0.4,3.6
	c-3.4,1.9-7.5,2.8-11.8,2.1C13.1,39.9,7.1,33.9,5.9,26.5z"/>
</svg>
